<svg xmlns="http://www.w3.org/2000/svg" version="1.1" xmlns:xlink="http://www.w3.org/1999/xlink" xmlns:svgjs="http://svgjs.dev/svgjs" width="1000" height="1000" viewBox="0 0 1000 1000"><rect width="1000" height="1000" fill="#000000"></rect><g transform="matrix(0.7,0,0,0.7,150.0000000000001,106.25)"><svg viewBox="0 0 320 360" data-background-color="#ffffff" preserveAspectRatio="xMidYMid meet" height="1125" width="1000" xmlns="http://www.w3.org/2000/svg" xmlns:xlink="http://www.w3.org/1999/xlink"><g id="tight-bounds" transform="matrix(1,0,0,1,-5.684341886080802e-14,0)"><svg viewBox="0 0 320 360" height="360" width="320"><g><svg></svg></g><g><svg viewBox="0 0 320 360" height="360" width="320"><g><path xmlns="http://www.w3.org/2000/svg" d="M85.508 32.884c0-1.117 0.558-2.233 1.675-2.233 1.117 0 2.233 0.558 2.234 2.233 0.558 0 1.675 0 2.233-0.558 2.233 0 4.467-0.558 6.141 0 1.675 0.558 2.792 0.558 4.467 1.117 1.675 0.558 2.792 0 3.908-0.559 2.233-0.558 3.908-1.675 6.141-2.233 1.117-0.558 1.675-0.558 2.792-0.558 1.117-0.558 2.233-0.558 3.908-1.117 2.792-0.558 5.583-1.117 7.817-2.233 2.233-1.117 4.467-1.117 6.699-1.675 1.117 0 1.675-0.558 2.792-1.117 0.558 0 0.558-0.558 1.116-1.116 1.117-0.558 1.675-1.117 2.792-0.559 0.558 0.558 1.675 0.558 2.233 0h0.559c3.35 0 6.7-0.558 10.608 0 0.558 0 1.117 0 1.116 0 1.675-1.117 3.908-1.117 6.142-1.116 0.558 0 1.675 0 2.233 0h0.558c2.233 0 4.467 0 6.142 0.558 1.675 0 2.792 0.558 4.466 1.117 1.675 0 2.792 0 4.467 0.558 1.117 0 2.233 0 3.35 0 0.558 0 1.117 0 1.116 0 2.233 0.558 4.467 0.558 6.7 0.558 1.675 0.558 3.35 1.117 5.583 1.117 0.558 0 1.117 0 1.675 0 0.558 0 1.117 0.558 1.675 0.558l0.558 0.559c2.233 0 3.908 1.117 6.142 1.116 0.558 0 1.675 0 2.233 0.559 1.675 1.117 3.908 1.675 6.141 1.675 1.117 0 1.675 0.558 2.234 1.116 1.675 0.558 2.792 1.117 4.466 1.675 1.117 0.558 2.233 0 3.35 0.558 1.675 0.558 3.908 1.117 5.583 2.792 1.117 1.117 2.233 1.117 3.908 2.233 0.558 0 1.117 0.558 1.675 1.117 1.675 1.117 3.35 2.233 5.025 2.791 0.558 0 1.117 0.558 1.675 0.559 1.675 1.117 3.35 2.792 5.583 3.908 1.117 0.558 1.675 1.117 2.792 1.675h0.558c1.675 1.675 3.908 2.792 5.583 4.466 1.675 1.675 2.792 2.792 5.025 3.909 0 0 0 0 0 0.558 0.558 1.117 1.117 1.675 2.233 2.233 1.117 0.558 1.675 1.117 2.234 1.675 1.675 1.117 3.35 2.233 4.466 3.35 0.558 0.558 1.117 1.117 2.233 2.233 0.558 0.558 1.117 1.117 1.675 1.117 2.233 0.558 3.35 2.233 5.025 3.908 1.117 1.117 2.792 2.792 3.908 3.908 0.558 0.558 1.117 1.675 1.675 2.792 1.117 3.35 2.792 6.7 4.467 9.491 0 0 0 0.558 0.558 1.117v0.558c1.117 1.117 1.675 2.792 2.792 3.908 0.558 0.558 0.558 1.117 1.116 1.675 1.117 1.675 1.675 3.908 2.792 5.583 1.675 2.792 2.792 5.583 3.908 8.375v0.558c0.558 1.117 1.117 2.233 1.675 3.908 0 1.117 1.117 2.233 1.675 3.909 0.558 2.792 2.233 5.583 2.791 8.933 0 0.558 0.558 1.117 0.559 2.233 0.558 1.675 1.117 3.35 1.675 5.025 0 0.558 0.558 1.117 1.116 1.675 1.117 1.117 1.117 2.233 1.117 3.35-0.558 2.233 0 4.467 0.558 6.699 0 0.558 0 1.117 0 2.234 0.558 2.233 1.117 5.025 1.117 7.258 0 0.558 0 1.675 0 2.233 0 1.675 0.558 3.35 1.675 5.025 0 0.558 0.558 0.558 0.558 0.558 0.558 0.558 1.117 1.675 1.675 2.233 0.558 0.558 0.558 0.558 1.117 1.117 1.117 1.117 1.675 2.233 1.675 3.908 0 0.558-0.558 1.675-0.559 2.233 0 0.558 0 1.675 0.559 2.234 0.558 0.558 0.558 1.117 0.558 1.675 0 0.558-0.558 1.117-1.117 1.116v0c-0.558 1.675-2.792 2.233-3.35 3.908-0.558 2.233-1.117 4.467-1.674 6.7-0.558 1.675-0.558 2.792-0.559 4.467 0 1.675-0.558 2.792-0.558 4.466-0.558 2.233-1.117 4.467-1.675 6.7 0 1.117-0.558 2.233-0.558 3.35 0.558 0.558 1.117 1.117 1.675 1.116 1.117 1.117 2.233 2.233 3.349 3.35 0.558 0.558 0.558 1.117 0 1.117-0.558 0.558-1.117 0.558-1.674 0.558-0.558-0.558-1.675-1.117-2.234-1.116-0.558-0.558-1.675-1.117-2.791-0.559 0 1.117-0.558 2.233-0.559 2.792-0.558 1.117-1.117 2.792-1.116 3.908-0.558 2.233-1.675 3.908-2.233 6.142-1.117 2.792-2.233 5.025-3.35 7.258-0.558 1.117-1.117 2.233-1.675 3.35v0c0 1.675-1.675 3.35-2.234 5.024-1.117 2.233-2.233 4.467-3.349 7.258-0.558 1.117-1.117 2.233-1.675 2.792-1.117 2.792-2.233 5.025-3.909 7.258-1.117 1.675-2.233 2.792-3.349 3.35-1.117 1.117-2.233 2.233-3.35 3.35-0.558 0.558-1.117 1.117-1.675 1.675-0.558 0.558-0.558 0.558-1.117 1.116-1.117 1.675-2.792 2.792-3.908 4.467-1.117 1.117-1.675 2.233-3.35 3.35-1.117 1.117-2.233 2.792-3.908 3.35-0.558 0.558-1.117 1.675-1.675 2.233-0.558 0.558-1.117 1.675-1.675 2.233 0 1.117 0.558 2.233 0.558 2.792 0 1.675-1.675 2.233-2.791 1.116-1.675-1.117-1.675-1.117-3.35 0-1.675 1.117-3.35 2.792-5.583 3.35-0.558 0-0.558 0.558-1.117 0.559-1.117 0.558-1.675 1.675-2.792 2.233-1.117 1.117-2.792 1.675-3.908 2.791-0.558 0.558-1.117 0.558-1.675 1.117-1.675 1.117-3.35 1.675-5.024 3.35-0.558 0.558-1.117 0.558-1.675 1.117 0 0.558 0 0.558 0 1.116 0 1.117-1.117 2.233-2.792 1.675-1.675-0.558-2.792 0-4.466 0-1.675 0.558-3.35 1.675-5.025 2.233-0.558 0-1.117 0.558-1.675 1.117-1.675 1.117-3.35 1.675-5.025 2.233-1.117 0-2.233 1.117-3.35 1.117-0.558 0-1.117 0.558-1.675 0.558h-0.558c-2.233 1.675-4.467 2.792-6.7 4.467-0.558 0-0.558 0.558-1.117 1.116-0.558 1.117-1.117 1.675-2.233 1.675-2.792 0-3.908 2.233-3.35 4.467 0 0.558 0.558 1.117 0.559 1.675 0.558 1.117 0 2.233-0.559 2.791-0.558 0.558-2.233 0.558-2.791-0.558-1.117-1.117-1.675-2.233-2.234-3.908-0.558-1.117-1.675-2.233-2.791-2.792-1.117-0.558-2.233-0.558-3.35 0-0.558 0-0.558 0.558-1.117 0.558-1.117 1.117-2.792 1.675-4.466 1.117-0.558 0-1.675 0-1.675 0.558-0.558 0.558-0.558 1.675 0 2.234 1.117 1.117 0.558 2.233 0.558 3.908 0 2.233-1.675 3.35-3.908 2.233-0.558-0.558-1.117-0.558-1.675-1.117-0.558 0-0.558-0.558-0.558-1.116-0.558-0.558-0.558-1.675-1.117-2.792-1.117 0.558-2.233 0.558-3.35 1.117-0.558 0-1.117 0.558-1.675 0.558-1.675 0-2.233 0-2.791-1.675-0.558-1.675-1.675-1.675-2.792-2.233-2.233-0.558-5.025-0.558-7.258-1.675h-0.558c-2.233-1.675-4.467-1.675-7.258-1.675-1.675 0-3.35 0.558-5.025 0.558-1.675 0-2.792 0.558-3.908 1.675-0.558 0.558-1.117 1.117-1.675 1.117-0.558-0.558-0.558-1.117-1.117-1.675v-0.558c0-0.558-0.558-1.117-1.116-0.559-1.117 0.558-2.233-0.558-3.35-1.116-0.558-0.558-1.675-1.675-1.675-2.792-0.558-0.558-1.117-1.117-1.675-1.116-1.117 0-2.792-0.558-3.908-0.559-0.558 0-1.117 0-1.117-0.558-0.558-0.558-1.117-0.558-2.233-0.558-0.558 0-0.558-0.558-1.117-0.559 1.117 1.117 1.675 2.233 2.233 3.35 0 0.558 0.558 0.558 0.559 1.117 0.558 1.117 0 1.675-1.675 1.675-1.117 0-1.117 0-1.675 0.558 0 1.117 0 1.675 0 2.792 0 0.558 0 1.117-1.117 1.675 0 0-0.558 0-0.558 0.558-0.558 0.558-0.558 1.117 0 1.675 1.675 1.117 2.792 1.675 4.466 2.233 1.675 0 1.675 1.117 2.234 2.233 0.558 1.117 0 1.675-0.559 2.792-1.117 1.117-2.233 2.233-3.35 3.35-1.675 0.558-2.792 2.233-4.466 2.233-1.117 0-2.233-0.558-2.792-1.675-0.558-2.792-0.558-5.025 0.559-7.816 0-0.558 0.558-1.117 0-1.675-5.025 0-5.025-1.117-5.025-1.675 0-1.117 0.558-1.675 0.558-2.792 0.558-1.117 0-1.675-1.675-2.233-0.558 0-1.117 0-1.675 0-0.558 0-0.558-0.558-1.675-0.558 1.117-0.558 1.675-0.558 2.792-1.117-0.558-2.233-1.117-3.908-2.792-5.025-0.558-0.558-1.117-1.117-1.116-2.233 0-1.675-1.117-2.792-1.675-3.908-1.117-1.675-3.35-2.233-5.025-2.233-1.675-0.558-2.792-0.558-4.467-1.117-1.675-0.558-3.35-2.233-5.024-2.792-0.558-0.558-1.117-1.117-2.234-1.674-2.233-1.117-3.908-2.792-5.583-4.467-1.117-0.558-1.675-1.675-2.791-2.233-1.117-1.117-1.675-2.233-2.792-2.792-1.117-1.117-2.233-2.233-3.908-3.35-1.675-1.117-2.792-2.792-4.467-4.466-1.117-1.675-2.792-2.792-4.466-3.908-0.558 0-1.117 0-1.675 0-0.558 0-1.117 0.558-1.675 0.558-1.675 0.558-2.792 1.675-4.467 2.233 0.558-0.558 0.558-0.558 0-1.675-0.558-0.558-1.117-1.117-1.674-1.116-1.117 0-2.233 0-3.35 0-2.233 0-4.467 0.558-6.7 0.558-1.675 0-3.908 0.558-5.583 1.117 0.558 1.117 0.558 1.675 1.116 2.791-1.117 0.558-2.233 0.558-3.35 0.558-0.558 0-1.675 0.558-2.233 1.117-0.558 0-0.558 0.558-1.116 0-1.117-0.558-2.233 0-3.35 0.558h-0.559c0 0 0-0.558 0.559-0.558 0.558-0.558 1.117-1.117 1.675-1.675 0.558-0.558 1.117-0.558 2.233-1.117-0.558-0.558-0.558-1.117-0.558-1.116-0.558-0.558-1.117-0.558-1.675 0-0.558 0.558-1.117 1.117-1.675 1.675-0.558 0.558-1.117 0.558-1.675 0-0.558-0.558-0.558-1.117 0-1.675 0-0.558 0.558-1.117 1.116-1.675 0.558-0.558 0.558-1.117 1.117-1.675-1.117-1.117-1.675-2.233-2.792-2.792-1.675-1.117-3.35-2.792-4.466-4.466-1.117-2.233-2.792-3.908-5.025-5.025-0.558-0.558-1.117-1.117-1.675-1.675-0.558-0.558-0.558-0.558-1.116-1.117-1.675 0.558-2.792 1.675-4.467 2.234-0.558 0-0.558 0.558-1.117 1.116-0.558 1.117-1.675 1.117-2.791 1.117-0.558 0-1.117-0.558-0.558-1.117 0.558-1.117 1.117-2.233 2.791-1.675 0 0 0.558 0 0.558-0.558 1.117-1.117 2.233-2.792 3.909-3.908-0.558-1.675-1.675-2.792-2.234-3.908-0.558-0.558-0.558-1.117-0.558-2.234 0-0.558 0-0.558-0.558-1.116 0 0-0.558 0-1.117 0.558-0.558 0.558-1.675 1.117-2.791 0 0-0.558 0-1.117 0.558-1.675l0.558-0.558c1.675-0.558 1.675-2.233 1.675-3.908v-0.559c-0.558-1.117-0.558-1.675 0.558-2.791 1.675-1.117 3.35-3.35 3.909-5.025 0.558-1.117 1.675-1.675 2.791-2.792 1.117-1.117 2.233-2.233 2.792-3.908h0.558c2.233 0.558 2.792-1.117 3.908-2.791 0-0.558 0-1.117 0.559-1.117 1.117-1.117 1.117-2.233 0.558-3.908 0-0.558-0.558-1.675-0.558-2.233 0-0.558 0-0.558-0.559-1.117-1.675-1.117-1.675-2.233 0-3.35 1.117-0.558 1.117-1.675 1.675-2.233 0.558-1.117 0.558-2.233 0.559-3.908-0.558-1.675-0.558-3.908-1.117-5.583-0.558-2.233-1.117-5.025-1.675-7.259 0-0.558 0-0.558 0-1.116 0-1.675 0-2.792-0.558-4.467-0.558-0.558-0.558-1.675-0.559-2.233-0.558-1.675-1.117-2.792-2.791-3.35-1.675-1.117-3.908-1.675-5.583-2.791-0.558-0.558-1.117 0-1.675 0.558-0.558 1.117-1.675 2.233-2.234 3.35-0.558 0.558-1.117 1.675-1.675 2.791-1.117 1.117-3.35 2.233-5.024 0.559-0.558-1.117-1.117-1.675 0-2.792 1.117-1.675 2.233-3.35 3.908-4.466 0.558-0.558 1.117-1.675 1.675-2.234 0.558-1.117 0.558-2.233 0.558-3.35-0.558-2.233-1.117-4.467-1.117-7.258 0-2.792 0-5.025 0.559-7.816 0.558-1.117 0.558-2.792 1.116-3.908 0-0.558 0.558-1.675 1.117-2.233 1.117-1.117 2.233-2.233 2.792-3.909 0.558-1.675 1.675-3.35 1.675-5.024 0-0.558 0.558-1.117 0.558-1.675 0-0.558 0.558-1.675 0.558-2.234-0.558-1.675 0-2.792 0.558-3.908 0.558-1.117 1.117-2.792 1.675-3.908 1.117-2.233 1.117-5.025 3.35-7.258 0.558-1.117 1.117-2.233 1.675-3.35 0.558-2.233 1.675-3.908 2.792-5.583 0.558-0.558 0.558-0.558 0.558-1.117 0.558-1.675 1.675-3.35 2.792-5.025 1.117-1.675 1.117-3.35 1.675-5.024 0-0.558 0-1.117 0.558-1.675 1.675-1.675 1.117-3.908 0.558-6.142-1.117-2.792-1.675-5.583-1.116-8.374 0-0.558 0-1.117 0.558-1.117 0.558-1.117 0.558-1.675 1.117-2.792v-0.558c1.117-1.117 2.233-2.792 3.908-3.35 2.233-1.117 4.467-1.675 7.258-2.233 2.233 0 4.467-1.117 6.141-3.35 0-0.558 0.558-0.558 1.117-1.117l0.558-0.558c0.558-1.117 1.117-1.675 1.675-2.233 1.117-1.117 2.233-2.792 3.35-3.908 1.117-1.117 2.233-2.792 3.908-4.467l0.559-0.558c1.117-1.117 2.233-2.233 3.349-2.792 1.117-1.117 2.233-2.233 3.35-3.35 1.117-1.117 1.675-2.233 2.792-3.35 1.117-0.558 2.233-1.675 3.35-2.791 1.117-1.117 2.233-2.233 2.791-2.792 1.117-1.117 2.792-2.233 3.909-2.791 1.117-0.558 2.233-1.117 2.791-2.792 0.558-1.675 1.117-2.792 1.675-4.466 0-1.117 0.558-2.233 1.117-3.35 0.558 0 1.117 0 2.233-0.558-0.558-0.558-1.117-0.558-1.117-1.117 0-0.558 0.558-1.117 0.559-1.117 0-0.558 0.558-1.117 0.558-1.675 0 0 0.558 0 0.558-0.558 0 0 0.558 0 0.559-0.558-1.117 0.558-1.675 0-2.234-0.559 0.558 0.558 1.117 0.558 2.234 1.117 0 0 0.558 0 0.558-0.558 0-0.558 0-1.117 0-1.117 0 0-0.558 0-1.117 0-0.558 0-1.117 0.558-1.675 0.558zM182.097 295.292c0-0.558-0.558-0.558-0.559-1.117-0.558-1.117 0-1.675 0.559-2.233 0.558-0.558 1.117-0.558 2.233-0.558 1.117 0.558 1.675 1.117 1.675 2.233 0 0.558 0 1.675 0 2.233 0.558 2.233 0.558 2.233 2.791 2.233 1.117 0 2.233 0 3.35 0 2.233-0.558 4.467-1.675 6.7-2.233 2.233-0.558 4.467-1.117 6.7-1.675 0.558 0 1.117 0 2.233 0 2.233 0.558 3.908 0 5.583-1.117 0.558-0.558 1.675-0.558 2.233-1.116 1.117-0.558 2.233-0.558 3.35-1.117 2.792-1.675 5.583-2.792 7.817-4.466 1.675-1.117 3.35-2.233 5.024-3.35 1.675-1.117 3.35-2.233 5.025-3.35 1.117-0.558 2.792-1.675 3.908-2.792 2.233-1.675 3.908-3.35 6.142-4.466 1.117-0.558 1.675-1.117 2.233-1.675 1.117-0.558 1.675-1.675 2.792-2.233 0.558-0.558 1.117-1.117 2.233-1.675 0.558-0.558 0.558-0.558 0.558-1.117 1.675-1.117 3.35-3.35 4.467-5.025 1.117-1.117 2.233-2.233 3.35-3.908 1.675-1.675 2.792-3.908 4.466-6.141 1.117-1.117 2.233-2.792 2.792-3.909 1.117-2.233 2.233-4.467 3.908-6.141v-0.558c1.117-2.233 2.233-4.467 3.35-6.7 1.675-2.792 2.792-6.141 4.466-8.933 0.558-1.117 1.117-2.233 1.117-3.35 1.117-2.233 1.675-4.467 2.233-6.7 0-0.558 0-0.558 0.559-1.116 1.675-3.35 2.792-6.7 3.349-10.608 0.558-2.233 1.117-4.467 1.675-6.7 1.117-3.35 1.117-6.141 1.675-9.491 0.558-2.233 0.558-5.025 0.559-7.258 0.558-3.35 0.558-7.258 0-10.608 0-2.792-0.558-6.141-0.559-8.933 0-2.792-0.558-5.025-1.116-7.817-0.558-2.792-1.117-5.025-1.675-7.816-1.117-2.233-1.675-4.467-2.234-7.258-0.558-2.233-1.675-3.908-1.674-6.142 0-1.675-0.558-3.35-2.234-3.908-1.675-0.558-2.792-1.117-4.466-2.233-3.35-2.233-5.025-5.025-4.467-8.375 0-1.675 0.558-3.908 1.117-5.583 0.558-1.675 1.117-3.35 0-4.467-0.558-1.675-1.675-2.792-2.233-3.908-1.117-1.675-1.675-2.792-2.792-3.908-1.117-2.233-2.233-4.467-3.908-6.141-2.233-2.792-3.908-5.583-6.7-7.817l-0.558-0.558c-1.675-2.233-3.35-4.467-5.583-6.142-1.117-1.117-2.233-2.233-3.35-2.791-0.558-0.558-1.117-1.117-2.233-1.675-1.675-1.117-3.35-1.675-4.467-2.792-1.675-1.675-3.908-2.792-5.583-3.908 0 0-0.558 0-0.558-0.558-2.233-1.117-3.908-1.675-6.142-2.792-2.233-1.117-4.467-1.675-6.7-1.675-0.558 0-0.558 0-1.116 0-0.558-0.558-1.675-0.558-2.233-0.558-0.558 0-0.558 0-1.117 0-1.117-0.558-2.792 0-3.908 0-2.233 0.558-4.467 0.558-6.7-0.558-2.792-1.117-5.025-2.233-7.258-3.35-1.675-1.117-2.792-2.233-4.467-3.35-3.35-2.792-6.7-6.141-10.608-8.933 0.558-2.792-0.558-3.35-2.791-3.35-1.117 0-2.233 0.558-3.35 1.117-0.558 0.558-0.558 0.558-1.117 1.116-1.675 1.117-2.792 2.792-4.466 3.909-2.792 1.675-3.908 1.117-6.142 0-0.558-0.558-1.117-1.117-1.675-1.675-1.117-1.117-2.233-2.792-2.791-3.909-1.117-2.233-3.35-2.233-5.583-2.233-1.117 0-2.792 0.558-3.908 0.558-2.233 0-4.467 1.117-5.584 2.792-1.117 1.675-2.233 3.35-3.908 5.025-0.558 0.558-1.675 1.117-2.233 2.233-1.117 1.117-2.233 1.117-3.35 0-0.558-0.558-1.117-0.558-1.675-1.117-0.558 0.558-1.117 1.117-1.117 1.675-0.558 1.117-1.117 2.233-1.674 3.909-0.558 1.675-1.675 3.35-2.792 4.466-0.558 0.558-0.558 0.558-1.117 1.117-0.558 1.117-2.233 1.675-3.35 1.675-1.117 1.117-2.233 2.792-2.791 3.908-0.558 1.117-1.117 2.233-1.675 3.908-0.558 0.558-0.558 1.675-1.117 2.233-0.558 1.117-0.558 1.675-0.558 2.792 0.558 1.675-0.558 2.233-2.233 2.791-1.117 0-1.117 0-1.675 1.117 0 1.675 0.558 2.792 1.116 4.467 0.558 0.558 1.117 1.675 1.117 2.233 0 1.117 0.558 1.675 1.675 2.233 0.558 0.558 1.117 1.117 1.675 1.117 0.558 0 0.558 0.558 1.117 0.558 0.558 0.558 1.117 0 1.116-0.558 0.558-1.675 1.117-3.35 1.117-5.025 0.558-2.233 0.558-3.908 1.116-6.142 0.558-1.117 1.117-1.675 1.675-2.233 0 0 0.558 0 1.117 0v0.559c-0.558 2.792-1.675 6.141-2.233 8.933-0.558 1.117-0.558 2.233-1.117 3.349 0 0.558-0.558 1.117-1.116 1.117-1.117 0.558-2.233 1.117-3.35 1.117-0.558 0-1.117 0-1.675 0-1.117-0.558-2.233-1.675-3.35-2.234-0.558-0.558-1.117-1.117-1.675-1.674-0.558-1.117-1.117-2.233-1.675-3.35-0.558-1.117-1.117-1.675-2.233-2.234-0.558-0.558-1.117-0.558-1.675-1.116-1.117-1.117-2.233-1.675-3.908-1.675-0.558 0-1.675 0-2.234 0-0.558 0-1.675 0.558-2.233 1.116-1.117 0.558-1.675 0.558-2.791 0-2.792-1.117-5.583-0.558-8.375 0.559-1.117 0.558-2.233 1.117-3.35 1.116-2.792 0-5.025 0-7.816 0-2.792 0-5.025-0.558-7.817-1.116-1.117 0-2.233 0-3.35 0-2.233 0.558-2.792 2.233-2.233 4.466 0.558 2.233 1.117 5.025 1.117 7.258 0 1.675 0 3.35 0 5.025 0 1.117 0 1.675 0 2.792 0 1.675-0.558 3.35-0.559 5.025-0.558 3.35-2.233 6.141-4.466 8.374-1.675 1.675-3.908 3.35-6.142 3.908-1.117 0.558-2.233 1.117-3.908 1.675-2.792 1.117-5.025 3.35-6.7 6.142-0.558 1.117-1.117 2.233-1.674 3.35-1.117 1.675-1.675 2.792-2.792 4.466-0.558 1.117-1.675 2.233-2.233 3.35-0.558 1.117-1.675 1.675-1.675 2.792-1.117 2.233-1.675 4.467-2.792 6.699-0.558 1.117-0.558 2.792-1.116 3.909-1.117 2.233-1.117 4.467-1.117 7.258 0 0.558 0 1.117 0 2.233 0 2.792-0.558 6.141-0.558 8.933 0 2.792 0 5.583 0.558 8.375 0 1.117 0 2.792 0 3.908 0 2.233 0.558 5.025 0.558 7.258 0 2.233 0 5.025 1.117 7.258v0.558c0.558 2.233 0.558 4.467 1.116 6.7 0 0.558 0 1.117 0.559 1.675 1.117 3.35 1.675 6.141 2.791 9.491 0.558 2.233 1.675 4.467 2.234 6.7 0.558 2.233 2.792 4.467 3.349 7.258v0c1.675 3.35 3.35 6.7 5.584 10.05 0.558 1.117 1.675 2.233 2.233 3.35 1.117 1.675 1.675 3.35 2.791 4.466 0.558 1.117 1.675 2.233 2.234 2.792 0.558 1.117 1.117 2.233 2.233 3.35 1.117 1.117 2.233 2.792 3.35 3.908 1.675 2.792 3.908 5.025 6.141 6.7 1.117 1.117 2.233 1.675 3.35 2.791 0.558 0.558 1.117 0.558 1.117 1.117 0.558 0.558 1.117 1.117 2.233 1.675 4.467 2.233 7.816 5.583 11.725 8.933 1.675 1.675 3.35 3.35 5.583 4.466 2.233 1.675 3.908 3.35 6.7 3.908 0 0 0.558 0 0.558 0.559 1.117 1.117 2.792 1.675 3.908 2.233 2.233 1.117 5.025 2.233 7.258 3.35 0.558 0.558 1.675 0.558 2.233 1.117 1.675 0.558 3.35 1.117 5.025 1.674 1.675 0.558 2.792 1.117 4.467 1.117h0.558c1.117 0.558 1.675 0.558 2.792 0 0.558 0 1.117 0 1.116 0.558 0 0.558 0.558 0.558 1.117 0.559 0.558 0 1.117 0 2.233 0 0.558-0.558 0.558-1.117 1.117-2.234 0.558 0.558 1.117 0.558 1.116 0.559 0.558 1.117 1.675 1.117 2.792 1.116h0.558c1.117 0 1.675 0 2.233-0.558 0-0.558 1.117-0.558 1.675-0.558 1.675 0.558 3.35 0.558 5.025 1.116 1.117 0.558 2.792 0.558 3.35-0.558 0.558-0.558 1.117-1.117 2.233-0.558 1.117 0.558 1.675 0.558 2.792 0 0.558 0 1.117 0 1.117 0 1.675 0.558 2.792 0.558 4.466 1.116 2.233 0.558 2.233 0.558 3.908-1.116 0.558-0.558 1.675-0.558 2.233 0 0.558 1.117 0.558 1.675 0.559 2.791 0.558 0 0.558 0 1.116-0.558 0-1.117 0.558-1.117 1.675-1.675 0.558 0.558 0.558 0.558 1.117 0.558 1.117 1.117 1.675 1.117 2.233-0.558 0-0.558 0-1.117 0.559-1.116 0.558 0 1.117 0.558 1.116 0.558 0.558 1.117 1.675 1.675 2.233 2.791 1.117 1.117 2.792 1.117 3.35 0 0.558-0.558 1.117-0.558 1.675-0.558 0-0.558 0-1.117 0-1.675 1.675 1.117 1.117 1.117 0.559 1.117zM89.417 34.559c1.675 0.558 2.792 0.558 3.349-0.558-1.117 0.558-2.233-0.558-3.349 0.558z" fill="#ffffff" fill-rule="nonzero" stroke="none" stroke-width="1" stroke-linecap="butt" stroke-linejoin="miter" stroke-miterlimit="10" stroke-dasharray="" stroke-dashoffset="0" font-family="none" font-weight="none" font-size="none" text-anchor="none" style="mix-blend-mode: normal" data-fill-palette-color="tertiary"></path></g><g transform="matrix(1,0,0,1,64,158.92722428852386)"><svg viewBox="0 0 192 42.14555142295225" height="42.14555142295225" width="192"><g><svg viewBox="0 0 675.7480679697395 148.3321611853088" height="42.14555142295225" width="192"><g><svg viewBox="0 0 675.7480679697395 148.3321611853088" height="148.3321611853088" width="675.7480679697395"><g id="textblocktransform"><svg viewBox="0 0 675.7480679697395 148.3321611853088" height="148.3321611853088" width="675.7480679697395" id="textblock"><g><svg viewBox="0 0 675.7480679697395 106.89228515625" height="106.89228515625" width="675.7480679697395"><g><svg><g></g><g></g></svg></g><g><svg><g><svg></svg></g><g></g></svg></g><g id="text-0"><svg viewBox="0 0 675.7480679697395 106.89228515625" height="106.89228515625" width="675.7480679697395"><g transform="matrix(1,0,0,1,0,20.413916015625)"><svg width="274.21875" viewBox="-4 -56.150001525878906 274.20001220703125 66.05999755859375" height="66.064453125" data-palette-color="#3d3839"><path d="M48.68-44.19L48.68-44.19Q48.68-42.48 48.05-40.89 47.41-39.31 47.12-37.65L47.12-37.65Q46.04-36.23 45.12-34.72 44.19-33.2 43.21-31.69 42.24-30.18 41.16-28.78 40.09-27.39 38.72-26.27L38.72-26.27Q38.77-26.22 38.77-26.07L38.77-26.07Q38.77-25.78 38.5-25.61 38.23-25.44 38.33-25.2L38.33-25.2Q37.11-23.93 35.94-22.71 34.77-21.48 33.79-19.97L33.79-19.97Q32.71-19.43 32.03-18.21L32.03-18.21Q31.74-18.21 31.59-18.09 31.45-17.97 31.2-17.87L31.2-17.87Q29.64-15.97 27.93-14.26 26.22-12.55 24.27-11.13L24.27-11.13Q23.54-10.6 22.8-10.16 22.07-9.72 21.39-9.23L21.39-9.23Q20.95-8.94 20.53-8.54 20.12-8.15 19.68-7.81L19.68-7.81Q18.26-6.59 16.89-5.79 15.53-4.98 13.67-4.69L13.67-4.69Q13.53-4.15 13.53-3.52L13.53-3.52 13.53-2.34Q13.53-1.76 13.48-1.15 13.43-0.54 13.13 0L13.13 0 13.13 0.15Q13.13 0.63 13.38 1.1 13.62 1.56 13.62 2.05L13.62 2.05Q13.62 2.39 13.28 2.64L13.28 2.64 14.55 2.64Q14.55 3.32 14.97 3.81 15.38 4.3 15.38 4.54L15.38 4.54Q15.38 5.37 15.21 6.37 15.04 7.37 14.21 7.71L14.21 7.71 14.21 8.01Q14.21 8.5 14.11 8.96 14.01 9.42 13.67 9.86L13.67 9.86Q13.38 9.86 13.11 9.89 12.84 9.91 12.6 9.91L12.6 9.91Q10.55 9.91 8.94 8.94L8.94 8.94Q8.4 7.67 8.23 6.32 8.06 4.98 8.06 3.61L8.06 3.61Q8.06 0.93 8.45-1.71 8.84-4.35 9.08-6.98L9.08-6.98 9.81-8.4Q9.91-9.77 10.16-11.16 10.4-12.55 10.64-13.92 10.89-15.28 11.06-16.65 11.23-18.02 11.18-19.38L11.18-19.38Q11.57-20.21 11.74-21.14 11.91-22.07 11.91-22.95L11.91-22.95Q11.91-23.44 11.87-23.93 11.82-24.41 11.57-24.85L11.57-24.85Q11.87-25.05 11.96-25.34 12.06-25.63 12.26-25.88L12.26-25.88Q12.4-27.78 12.5-29.66 12.6-31.54 12.6-33.4L12.6-33.4Q12.6-34.42 12.55-35.42 12.5-36.43 12.4-37.45L12.4-37.45Q12.35-37.84 12.23-38.38 12.11-38.92 12.11-39.21L12.11-39.21Q12.11-39.6 12.16-40.01 12.21-40.43 12.21-40.87L12.21-40.87Q12.21-41.36 12.11-41.82 12.01-42.29 11.77-42.68L11.77-42.68Q9.42-41.99 7.57-40.84 5.71-39.7 3.81-38.28L3.81-38.28Q3.03-37.74 2.1-37.01 1.17-36.28 0.34-35.89L0.34-35.89Q0.2-35.79-0.02-35.77-0.24-35.74-0.39-35.74L-0.39-35.74Q-0.93-35.74-1.37-35.82-1.81-35.89-2.25-35.89L-2.25-35.89Q-2.93-36.57-3.86-36.96L-3.86-36.96Q-4-37.55-4-38.23L-4-38.23Q-4-38.92-3.88-39.55-3.76-40.19-3.52-40.82L-3.52-40.82Q-2.93-41.02-2.27-41.26-1.61-41.5-1-41.82-0.39-42.14 0.1-42.55 0.59-42.97 0.88-43.6L0.88-43.6Q1.17-43.46 1.42-43.46L1.42-43.46Q1.66-43.46 1.86-43.51 2.05-43.55 2.29-43.6L2.29-43.6Q3.17-44.14 4.08-44.73 4.98-45.31 5.96-45.7L5.96-45.7Q6.25-45.8 6.3-45.95 6.35-46.09 6.3-46.39L6.3-46.39Q7.42-46.73 8.64-47.19 9.86-47.66 10.69-48.49L10.69-48.49 11.57-48.49Q12.3-49.02 13.13-49.37 13.96-49.71 14.82-50.02 15.67-50.34 16.5-50.71 17.33-51.07 18.07-51.66L18.07-51.66Q18.36-51.76 18.55-51.76L18.55-51.76Q18.8-51.76 19.09-51.66L19.09-51.66Q19.58-51.9 19.92-52.25L19.92-52.25 20.7-53.03Q21.48-53.03 22.12-53.17 22.75-53.32 23.34-53.56 23.93-53.81 24.49-54.13 25.05-54.44 25.73-54.79L25.73-54.79Q26.03-54.69 26.17-54.57 26.32-54.44 26.66-54.44L26.66-54.44Q27.15-54.79 27.71-54.96 28.27-55.13 28.86-55.22 29.44-55.32 30-55.47 30.57-55.62 31.01-56.01L31.01-56.01Q32.57-56.01 34.16-56.08 35.74-56.15 37.3-56.15L37.3-56.15Q39.55-56.15 41.87-55.81 44.19-55.47 46.04-54.1L46.04-54.1Q46.78-52.34 48.14-51.12L48.14-51.12Q48.24-50.59 48.36-50.12 48.49-49.66 48.68-49.22L48.68-49.22Q48.34-48.49 48.34-47.61L48.34-47.61Q48.34-46.73 48.51-45.87 48.68-45.02 48.68-44.19ZM44.14-45.36L44.14-45.36Q43.9-45.8 43.82-46.36 43.75-46.92 43.8-47.46L43.8-47.46Q43.16-47.95 42.82-48.73 42.48-49.51 41.85-49.9L41.85-49.9Q41.41-50.15 40.6-50.2 39.79-50.24 39.26-50.39L39.26-50.39Q38.62-50.59 38.4-50.78 38.18-50.98 37.5-50.98L37.5-50.98Q36.91-50.98 36.33-50.85 35.74-50.73 35.16-50.73L35.16-50.73Q34.67-50.73 34.23-50.93 33.79-51.12 33.3-51.12L33.3-51.12Q32.76-51.12 32.3-50.78 31.84-50.44 31.2-50.59L31.2-50.59Q30.91-50.34 30.88-50.2 30.86-50.05 30.81-49.98 30.76-49.9 30.57-49.9L30.57-49.9 29.88-49.9Q28.86-49.9 27.81-49.61 26.76-49.32 25.93-48.63L25.93-48.63Q25.78-48.68 25.66-48.71 25.54-48.73 25.39-48.73L25.39-48.73Q24.56-48.73 23.8-48.27 23.05-47.8 22.12-47.8L22.12-47.8Q21.53-47.22 20.7-46.88 19.87-46.53 19.02-46.22 18.16-45.9 17.43-45.48 16.7-45.07 16.31-44.29L16.31-44.29Q16.26-43.9 16.55-43.8 16.85-43.7 16.85-43.31L16.85-43.31Q16.85-42.97 16.72-42.48 16.6-41.99 16.6-41.5L16.6-41.5Q16.6-40.38 16.85-39.31 17.09-38.23 17.33-37.11L17.33-37.11Q17.09-36.96 16.99-36.67 16.89-36.38 16.65-36.23L16.65-36.23Q17.33-34.18 17.33-32.03L17.33-32.03Q17.33-30.32 16.97-28.69 16.6-27.05 16.46-25.34L16.46-25.34 16.46-25.29Q16.46-25 16.65-24.9 16.85-24.8 16.85-24.56L16.85-24.56Q16.85-24.41 16.8-24.32L16.8-24.32Q16.26-21 15.75-17.68 15.23-14.36 14.89-10.99L14.89-10.99 15.28-10.99Q16.55-10.99 17.55-11.74 18.55-12.5 19.24-13.43L19.24-13.43 20.02-13.43Q23.54-16.5 26.78-19.78 30.03-23.05 32.96-26.81L32.96-26.81Q33.35-26.81 33.5-27 33.64-27.2 33.98-27.29L33.98-27.29Q35.01-28.71 36.13-30.1 37.26-31.49 38.57-32.76L38.57-32.76Q38.62-33.25 38.84-33.64 39.06-34.03 39.31-34.38 39.55-34.72 39.75-35.11 39.94-35.5 39.94-36.04L39.94-36.04Q40.19-36.13 40.48-36.25 40.77-36.38 41.02-36.62L41.02-36.62Q41.11-37.11 41.36-37.5 41.6-37.89 41.6-38.38L41.6-38.38Q41.6-38.57 41.5-38.87L41.5-38.87Q42.29-39.21 42.72-39.99 43.16-40.77 43.41-41.72 43.65-42.68 43.77-43.65 43.9-44.63 44.14-45.36ZM80.17-3.56L80.17-3.56Q80.03-2.88 79.56-2.47 79.1-2.05 78.46-1.81 77.83-1.56 77.17-1.49 76.51-1.42 75.97-1.42L75.97-1.42Q75.73-1.42 75.51-1.44 75.29-1.46 75.05-1.46L75.05-1.46Q74.8-1.46 74.8-1.22 74.8-0.98 74.56-0.88L74.56-0.88Q74.31-0.98 74.07-1.03 73.83-1.07 73.58-1.07L73.58-1.07Q73.24-1.07 72.92-1.03 72.6-0.98 72.31-0.98L72.31-0.98Q71.92-0.98 71.75-1.07 71.58-1.17 71.46-1.29 71.34-1.42 71.21-1.56 71.09-1.71 70.85-1.81L70.85-1.81Q70.51-1.95 70.29-1.86 70.07-1.76 69.63-2.15L69.63-2.15Q69.04-2.64 68.63-3.34 68.21-4.05 67.82-4.83 67.43-5.62 66.99-6.4 66.55-7.18 65.96-7.76L65.96-7.76 65.57-7.76Q64.69-7.76 64.35-7.03L64.35-7.03Q64.11-7.18 63.86-7.4 63.62-7.62 63.33-7.76L63.33-7.76Q62.2-7.42 60.98-7.18 59.76-6.93 58.54-6.93L58.54-6.93 57.86-6.93Q57.57-6.93 57.22-7.03L57.22-7.03Q56.74-6.84 56.35-6.57 55.95-6.3 55.47-6.3L55.47-6.3Q55.17-6.3 54.78-6.49L54.78-6.49Q54.49-6.49 54.51-6.25 54.54-6.01 54.2-6.01L54.2-6.01 53.76-6.01Q53.07-6.01 52.41-5.96 51.76-5.91 51.07-5.91L51.07-5.91Q50.14-5.91 49.17-6.15L49.17-6.15Q48.92-6.01 48.63-6.01L48.63-6.01Q48.44-5.91 48.34-5.69 48.24-5.47 48.14-5.3 48.04-5.13 47.87-5 47.7-4.88 47.41-4.93L47.41-4.93Q47.31-4.35 46.92-4 46.53-3.66 46.53-2.98L46.53-2.98Q45.99-2.69 45.65-2.25 45.31-1.81 44.97-1.32 44.63-0.83 44.26-0.39 43.89 0.05 43.36 0.29L43.36 0.29Q43.11 0.59 43.21 1.22L43.21 1.22Q42.67 1.66 41.89 2 41.11 2.34 40.43 2.34L40.43 2.34Q39.01 2.34 38.47 0.83L38.47 0.83Q38.47 0.34 38.55-0.22 38.62-0.78 38.77-1.29 38.91-1.81 39.21-2.22 39.5-2.64 40.04-2.83L40.04-2.83Q40.04-3.27 39.74-3.44 39.45-3.61 39.5-4.05L39.5-4.05Q40.82-4.69 41.79-5.71 42.77-6.74 43.58-7.89 44.38-9.03 45.21-10.21 46.04-11.38 47.07-12.3L47.07-12.3 47.07-13.33Q48.53-14.89 48.97-16.85L48.97-16.85Q49.51-16.94 49.68-17.33 49.85-17.72 49.85-18.26L49.85-18.26Q50.1-18.26 50.17-18.48 50.24-18.7 50.58-18.6L50.58-18.6Q51.02-19.78 51.56-20.75 52.1-21.73 52.63-22.73 53.17-23.73 53.59-24.8 54-25.88 54.2-27.2L54.2-27.2Q54.88-27.25 54.95-27.86 55.03-28.47 55.12-28.96L55.12-28.96Q55.86-29.64 56.22-30.57 56.59-31.49 56.88-32.5 57.18-33.5 57.54-34.5 57.91-35.5 58.59-36.28L58.59-36.28 58.59-36.43Q58.59-36.67 58.4-36.74 58.2-36.82 58.2-37.06L58.2-37.06Q58.25-37.11 58.25-37.16L58.25-37.16Q58.84-37.4 59.13-37.96 59.42-38.53 60.01-38.77L60.01-38.77Q61.03-37.94 61.81-37.77 62.6-37.6 63.86-37.5L63.86-37.5Q64.5-36.82 64.57-35.86 64.65-34.91 64.89-33.98L64.89-33.98Q65.28-32.42 65.74-30.93 66.21-29.44 66.45-27.88L66.45-27.88Q66.6-26.95 66.99-26.12 67.38-25.29 67.53-24.41L67.53-24.41Q67.62-23.73 67.53-22.88 67.43-22.02 67.72-21.39L67.72-21.39 68.06-20.61Q68.31-20.07 68.48-19.48 68.65-18.9 68.8-18.31L68.8-18.31Q69.19-16.85 69.5-15.16 69.82-13.48 70.51-12.11L70.51-12.11Q70.75-11.62 71.26-11.43 71.77-11.23 72.41-11.16 73.04-11.08 73.65-11.11 74.27-11.13 74.7-11.13L74.7-11.13 75.19-11.13Q75.49-11.13 75.78-11.04L75.78-11.04Q75.97-10.64 75.97-10.35L75.97-10.35Q75.97-9.77 75.58-9.42 75.19-9.08 75.19-8.64L75.19-8.64Q75.19-8.4 75.39-8.11L75.39-8.11Q75.19-8.15 74.8-8.15L74.8-8.15Q73.68-8.15 72.6-7.76L72.6-7.76Q73-6.93 73.65-6.37 74.31-5.81 75.05-5.32L75.05-5.32Q75.53-5.71 76.07-5.71L76.07-5.71Q76.66-5.71 77.17-5.44 77.68-5.18 78.27-5.18L78.27-5.18Q78.71-5.18 78.9-5.32L78.9-5.32Q79.29-4.88 79.54-4.42 79.78-3.96 80.17-3.56ZM64.89-11.38L64.89-11.38Q64.79-12.21 64.57-12.57 64.35-12.94 64.21-13.48L64.21-13.48Q64.01-14.16 63.94-14.94 63.86-15.72 63.72-16.46L63.72-16.46Q63.38-18.12 62.96-19.78 62.55-21.44 61.91-23L61.91-23Q62.11-23.29 62.11-23.54L62.11-23.54 62.11-23.68Q61.67-24.17 61.47-24.88 61.28-25.59 61.11-26.29 60.94-27 60.67-27.61 60.4-28.22 59.81-28.61L59.81-28.61Q59.67-28.32 59.67-27.93L59.67-27.93Q59.67-27.59 59.74-27.29 59.81-27 59.81-26.66L59.81-26.66Q59.32-26.42 59.1-25.9 58.88-25.39 58.4-25.1L58.4-25.1Q58.01-23.54 57.27-22.14 56.54-20.75 55.73-19.38 54.93-18.02 54.2-16.63 53.46-15.23 53.02-13.72L53.02-13.72Q52.39-13.28 52.17-12.6 51.95-11.91 51.95-11.23L51.95-11.23Q52.39-10.99 52.95-10.96 53.51-10.94 54.05-10.94 54.59-10.94 55.08-10.84 55.56-10.74 55.95-10.35L55.95-10.35Q56.59-10.55 57.35-10.62 58.1-10.69 58.59-11.04L58.59-11.04Q59.57-10.69 60.69-10.69L60.69-10.69Q61.28-10.69 61.84-10.79 62.4-10.89 62.94-11.04L62.94-11.04Q63.38-10.94 63.62-10.72 63.86-10.5 64.35-10.55L64.35-10.55Q64.6-10.74 64.65-10.96 64.69-11.18 64.89-11.38ZM141.25-8.5L141.25-8.5Q141.16-7.76 140.74-7.37 140.33-6.98 139.79-6.64L139.79-6.64Q139.55-6.69 139.33-6.71 139.11-6.74 138.86-6.74L138.86-6.74Q137.35-6.79 136.01-6.35 134.66-5.91 133.25-5.71L133.25-5.71Q132.76-5.62 132.34-5.64 131.93-5.66 131.49-5.57L131.49-5.57Q129.93-5.32 128.17-5.18 126.41-5.03 124.65-4.81 122.9-4.59 121.21-4.27 119.53-3.96 118.06-3.37L118.06-3.37Q117.91-3.47 117.77-3.59 117.62-3.71 117.43-3.71L117.43-3.71Q116.94-3.71 116.5-3.56 116.06-3.42 115.62-3.47L115.62-3.47Q115.13-3.17 114.57-3.05 114.01-2.93 113.45-2.86 112.89-2.78 112.35-2.64 111.81-2.49 111.32-2.1L111.32-2.1Q110.93-2.29 110.37-2.32 109.81-2.34 109.61-2.69L109.61-2.69Q108.49-2.15 107.25-2 106-1.86 104.73-1.9L104.73-1.9Q103.9-1.95 102.83-2.15 101.75-2.34 100.68-2.71 99.6-3.08 98.68-3.59 97.75-4.1 97.26-4.83L97.26-4.83Q96.92-5.32 96.77-5.91 96.63-6.49 96.09-6.79L96.09-6.79Q96.24-7.91 96.43-8.98 96.63-10.06 96.82-11.18L96.82-11.18Q97.8-12.01 98.68-12.94 99.56-13.87 100.34-14.89L100.34-14.89Q101.26-15.33 102.07-15.97 102.88-16.6 103.68-17.26 104.49-17.92 105.29-18.55 106.1-19.19 107.03-19.68L107.03-19.68Q107.17-20.02 107.44-20.24 107.71-20.46 108-20.68 108.3-20.9 108.54-21.17 108.78-21.44 108.88-21.83L108.88-21.83Q110.59-22.85 111.86-24.41 113.13-25.98 113.52-27.93L113.52-27.93Q112.69-28.61 111.64-28.83 110.59-29.05 109.47-29.15L109.47-29.15Q108.49-29.2 107.44-29.15 106.39-29.1 105.32-29.2L105.32-29.2Q104.24-28.86 103.1-28.76 101.95-28.66 100.83-28.59 99.7-28.52 98.6-28.3 97.5-28.08 96.48-27.49L96.48-27.49Q96.28-27.49 96.11-27.54 95.94-27.59 95.75-27.59L95.75-27.59Q94.18-27.64 92.82-26.98 91.45-26.32 90.13-25.68L90.13-25.68Q90.03-25.49 90.03-25.39L90.03-25.39Q90.03-25.1 90.16-24.83 90.28-24.56 90.28-24.27L90.28-24.27Q90.23-24.22 90.23-24.17 90.23-24.12 90.18-24.07L90.18-24.07Q90.13-23.83 90.06-23.63 89.99-23.44 89.89-23.19L89.89-23.19Q89.35-21.63 89.3-20.12L89.3-20.12Q89.25-18.85 89.3-17.63 89.35-16.41 89.3-15.14L89.3-15.14Q89.2-13.57 88.81-12.21L88.81-12.21Q89.06-11.04 89.25-9.74 89.45-8.45 89.74-7.18 90.03-5.91 90.45-4.71 90.86-3.52 91.55-2.44L91.55-2.44Q91.5-2.34 91.6-2.29 91.69-2.25 91.79-2.25L91.79-2.25 92.18-2.25Q92.43-2.25 92.38-2.05L92.38-2.05Q92.48-1.9 92.52-1.78 92.57-1.66 92.72-1.56L92.72-1.56Q92.82-1.42 92.72-1.17L92.72-1.17Q92.67-0.2 92.23 0.63 91.79 1.46 91.69 2.44L91.69 2.44Q91.11 2.59 90.62 2.59L90.62 2.59Q89.79 2.54 89.16 2.12 88.52 1.71 87.98 1.12 87.45 0.54 86.96-0.07 86.47-0.68 85.88-1.12L85.88-1.12Q85.54-2.49 85.22-4.15 84.91-5.81 84.17-6.98L84.17-6.98Q84.37-7.42 84.37-8.06L84.37-8.06Q84.42-9.03 84.2-9.99 83.98-10.94 84.08-11.91L84.08-11.91Q84.08-12.45 84.2-12.99 84.32-13.53 84.37-14.06L84.37-14.06Q84.42-14.89 84.2-15.67 83.98-16.46 84.03-17.29L84.03-17.29Q84.08-17.68 84.2-18.04 84.32-18.41 84.57-18.7L84.57-18.7Q84.32-19.29 84.42-19.82L84.42-19.82Q84.47-20.65 84.61-21.39 84.76-22.12 84.81-22.85L84.81-22.85Q84.81-23.24 84.76-23.61 84.71-23.97 84.61-24.32L84.61-24.32 84.17-24.46Q83.88-24.46 83.61-24.32 83.34-24.17 83.15-23.97 82.95-23.78 82.81-23.66 82.66-23.54 82.51-23.54L82.51-23.54Q82.42-23.54 82.29-23.56 82.17-23.58 82.08-23.58L82.08-23.58Q81.98-23.58 81.71-23.39 81.44-23.19 81.07-22.97 80.71-22.75 80.37-22.53 80.02-22.31 79.83-22.27L79.83-22.27Q79.29-22.36 78.97-22.63 78.66-22.9 78.39-23.17 78.12-23.44 77.83-23.66 77.53-23.88 77.09-23.83L77.09-23.83Q76.95-24.12 76.92-24.46 76.9-24.8 76.95-25.15L76.95-25.15 76.95-25.93Q77.29-26.56 77.85-26.98 78.41-27.39 79.05-27.69L79.05-27.69 80.32-28.27Q80.95-28.56 81.49-29L81.49-29 81.93-29Q82.81-28.96 83.47-29.35 84.13-29.74 84.71-30.25 85.3-30.76 85.91-31.3 86.52-31.84 87.25-32.13L87.25-32.13Q87.79-31.88 88.37-31.71 88.96-31.54 89.59-31.49L89.59-31.49Q90.23-31.49 90.91-31.69 91.6-31.88 91.99-32.42L91.99-32.42Q92.23-32.32 92.4-32.3 92.57-32.28 92.82-32.28L92.82-32.28Q93.55-32.23 94.28-32.5 95.01-32.76 95.7-33.15L95.7-33.15Q96.67-33.11 97.63-33.28 98.58-33.45 99.53-33.64 100.48-33.84 101.44-34.01 102.39-34.18 103.36-34.13L103.36-34.13Q104.98-34.08 106.54-34.42 108.1-34.77 109.71-34.67L109.71-34.67Q110.83-34.62 111.93-34.5 113.03-34.38 114.16-34.42L114.16-34.42Q114.79-34.13 115.3-33.91 115.82-33.69 116.6-33.79L116.6-33.79Q118.16-32.47 119.43-30.71L119.43-30.71 119.43-29.88Q119.38-28.76 119.04-27.69 118.7-26.61 118.23-25.56 117.77-24.51 117.23-23.51 116.69-22.51 116.21-21.53L116.21-21.53Q113.03-18.65 109.86-15.82 106.68-12.99 103.32-10.35L103.32-10.35Q103.22-9.86 103.05-9.47 102.88-9.08 102.83-8.64L102.83-8.64Q102.83-8.4 102.88-8.25L102.88-8.25Q103.22-8.15 103.49-7.89 103.75-7.62 103.66-7.18L103.66-7.18 104.1-7.18Q104.34-7.18 104.34-6.98L104.34-6.98 105.12-6.93Q106.98-6.84 108.83-7.03 110.69-7.23 112.57-7.47 114.45-7.71 116.3-7.93 118.16-8.15 120.01-8.2L120.01-8.2Q120.45-8.35 120.94-8.45 121.43-8.54 121.82-8.84L121.82-8.84 121.97-8.84Q122.31-8.84 122.48-8.64 122.65-8.45 122.99-8.4L122.99-8.4Q123.24-8.4 123.51-8.5 123.77-8.59 124.07-8.64L124.07-8.64Q124.75-8.84 125.51-8.89 126.26-8.94 127-9.03L127-9.03Q129.83-9.28 132.61-9.35 135.4-9.42 138.18-10.06L138.18-10.06Q138.42-9.72 138.86-9.59 139.3-9.47 139.79-9.35 140.28-9.23 140.69-9.08 141.11-8.94 141.25-8.5ZM168.3-31.4L168.45-31.4Q168.25-30.76 167.81-30.22L167.81-30.22 166.98-29.2Q166.59-28.71 166.33-28.15 166.06-27.59 166.15-26.86L166.15-26.86Q166.06-26.86 165.91-26.88 165.76-26.9 165.67-26.9L165.67-26.9Q164.89-26.9 164.47-26.54 164.06-26.17 163.37-25.93L163.37-25.93Q163.27-26.22 163.13-26.49 162.98-26.76 162.69-26.86L162.69-26.86Q161.52-26.61 160.34-26.49 159.17-26.37 158-26.17L158-26.17Q157.46-26.07 156.93-25.9 156.39-25.73 155.8-25.59L155.8-25.59Q155.51-25.49 155.17-25.51 154.83-25.54 154.48-25.49L154.48-25.49Q153.31-25.44 151.95-25.32 150.58-25.2 149.5-24.56L149.5-24.56Q149.02-24.66 148.48-24.71 147.94-24.76 147.4-24.76L147.4-24.76Q146.23-24.76 144.84-24.54 143.45-24.32 142.38-23.68L142.38-23.68Q142.13-23.78 141.86-23.83 141.59-23.88 141.25-23.88L141.25-23.88Q141.15-23.88 141.11-23.85 141.06-23.83 140.96-23.83L140.96-23.83Q140.91-23.39 141.08-22.97 141.25-22.56 141.69-22.31L141.69-22.31Q141.5-21.78 141.5-21.14L141.5-21.14Q141.5-20.31 141.62-19.48 141.74-18.65 141.74-17.82L141.74-17.82Q141.74-16.89 141.5-16.36L141.5-16.36Q141.98-14.89 141.98-13.23L141.98-13.23Q141.98-12.65 141.91-12.08 141.84-11.52 141.84-10.89L141.84-10.89Q141.84-10.35 142.23-10.03 142.62-9.72 142.62-9.18L142.62-9.18Q142.62-8.98 142.52-8.79L142.52-8.79Q143.21-8.94 143.84-9.2 144.47-9.47 145.16-9.47L145.16-9.47Q145.55-9.47 145.92-9.33 146.28-9.18 146.57-8.94L146.57-8.94Q146.53-8.69 146.5-8.4 146.48-8.11 146.48-7.81L146.48-7.81Q146.48-7.28 146.5-6.81 146.53-6.35 146.57-5.81L146.57-5.81Q146.18-5.13 145.67-4.59 145.16-4.05 144.96-3.22L144.96-3.22Q144.23-3.22 143.67-2.91 143.11-2.59 142.62-2.22 142.13-1.86 141.64-1.54 141.15-1.22 140.57-1.22L140.57-1.22Q139.84-1.22 139.54-1.44 139.25-1.66 139.1-1.9 138.96-2.15 138.84-2.34 138.71-2.54 138.32-2.49L138.32-2.49Q138.22-3.13 137.93-3.69 137.64-4.25 137.32-4.79 137-5.32 136.69-5.88 136.37-6.45 136.22-7.03L136.22-7.03Q135.93-8.3 135.98-9.67 136.03-11.04 135.54-12.3L135.54-12.3Q135.64-12.99 135.69-13.7 135.73-14.4 135.73-15.09L135.73-15.09Q135.73-16.46 135.66-17.8 135.59-19.14 135.54-20.56L135.54-20.56Q135.2-21 135.12-21.56 135.05-22.12 135-22.66L135-22.66Q134.86-22.8 134.68-22.95 134.51-23.1 134.47-23.34L134.47-23.34Q134.07-23.44 133.88-23.44L133.88-23.44Q133.2-23.44 132.73-23.12 132.27-22.8 131.88-22.8L131.88-22.8Q131.49-22.8 131.14-22.9 130.8-23 130.46-23L130.46-23Q130.17-23 130.14-22.88 130.12-22.75 129.92-22.66L129.92-22.66Q129.78-22.56 129.24-22.46 128.7-22.36 128.04-22.29 127.39-22.22 126.77-22.17 126.16-22.12 125.97-22.12L125.97-22.12Q125.19-22.12 124.77-22.44 124.36-22.75 123.77-23.14L123.77-23.14Q123.87-23.44 123.87-23.54L123.87-23.54Q123.87-24.02 123.58-24.34 123.28-24.66 123.28-24.9L123.28-24.9Q123.28-25.44 123.7-25.73 124.11-26.03 124.16-26.66L124.16-26.66Q125.29-27.15 126.46-27.39 127.63-27.64 128.85-27.78 130.07-27.93 131.27-28.13 132.46-28.32 133.64-28.76L133.64-28.76Q133.98-28.71 134.29-28.69 134.61-28.66 134.95-28.66L134.95-28.66Q136.42-28.66 137.86-28.98 139.3-29.3 140.81-29.3L140.81-29.3Q141.2-29.3 141.59-29.25 141.98-29.2 142.38-29.1L142.38-29.1Q144.33-29.39 146.26-29.74 148.19-30.08 150.24-30.32L150.24-30.32Q151.21-30.42 152.17-30.49 153.12-30.57 154.09-30.71L154.09-30.71Q154.44-30.76 154.61-30.88 154.78-31.01 154.78-31.4L154.78-31.4Q155.22-31.2 155.75-31.2L155.75-31.2Q156.58-31.2 157.37-31.49 158.15-31.79 158.98-31.79L158.98-31.79Q159.17-31.79 159.32-31.76 159.47-31.74 159.61-31.74L159.61-31.74Q159.95-31.74 159.98-32.06 160-32.37 160.44-32.47L160.44-32.47Q160.78-32.57 161.42-32.62 162.05-32.67 162.76-32.74 163.47-32.81 164.08-32.93 164.69-33.06 164.98-33.3L164.98-33.3 165.32-33.84Q166.2-33.79 166.62-33.08 167.03-32.37 167.08-31.54L167.08-31.54Q167.28-31.35 167.64-31.37 168.01-31.4 168.3-31.4L168.3-31.4ZM172.16-6.69L172.16-6.69Q171.91-6.3 171.57-5.98 171.23-5.66 170.94-5.32L170.94-5.32Q170.6-5.18 170.18-5.18 169.77-5.18 169.4-5.2 169.03-5.22 168.72-5.2 168.4-5.18 168.2-4.98L168.2-4.98Q167.81-5.08 167.62-5.35 167.42-5.62 166.93-5.66L166.93-5.66Q166.74-5.71 166.54-5.66L166.54-5.66Q165.81-6.49 165.2-7.42 164.59-8.35 164.05-9.18L164.05-9.18Q164-10.99 163.76-12.84L163.76-12.84Q163.71-13.28 163.61-13.72 163.52-14.16 163.47-14.55L163.47-14.55Q163.47-15.04 163.54-15.5 163.61-15.97 163.66-16.36L163.66-16.36Q163.86-17.77 164.1-19.14 164.35-20.51 164.54-21.92L164.54-21.92Q164.74-23.19 164.74-24.58 164.74-25.98 164.3-27.2L164.3-27.2 164.25-27.44Q164.35-27.83 164.47-28.1 164.59-28.37 164.64-28.71L164.64-28.71Q164.74-29.25 164.39-29.49L164.39-29.49Q164.54-29.88 164.88-30 165.22-30.13 165.27-30.57L165.27-30.57Q165.32-30.76 165.27-30.96L165.27-30.96Q165.66-31.1 166.08-31.23 166.49-31.35 166.88-31.25L166.88-31.25Q167.52-31.15 168.01-30.83 168.5-30.52 168.94-30.13L168.94-30.13Q169.72-27.78 169.57-25.17 169.42-22.56 169.08-19.92 168.74-17.29 168.64-14.77 168.54-12.26 169.42-10.11L169.42-10.11 169.52-10.06Q169.77-10.01 169.91-10.23 170.06-10.45 170.3-10.4L170.3-10.4Q170.5-10.3 170.55-10.3L170.55-10.3Q170.74-9.33 171.18-8.45 171.62-7.57 172.16-6.69ZM213.17-8.79L213.42-8.79Q213.42-8.3 213.15-7.98 212.88-7.67 212.51-7.42 212.15-7.18 211.78-6.98 211.41-6.79 211.12-6.49L211.12-6.49Q210.93-6.3 210.85-6.03 210.78-5.76 210.58-5.66L210.58-5.66Q210.29-5.42 209.95-5.37 209.61-5.32 209.24-5.25 208.87-5.18 208.53-5.05 208.19-4.93 207.95-4.59L207.95-4.59Q205.65-4.35 203.43-3.96 201.21-3.56 198.86-3.56L198.86-3.56Q198.43-3.56 197.91-3.49 197.4-3.42 196.96-3.37L196.96-3.37Q195.93-3.27 194.93-3.22 193.93-3.17 192.91-3.17L192.91-3.17Q191.49-3.17 190.08-3.3 188.66-3.42 187.29-3.71L187.29-3.71Q186.95-3.96 186.51-4.1 186.07-4.25 185.61-4.39 185.14-4.54 184.75-4.74 184.36-4.93 184.17-5.32L184.17-5.32Q183.43-5.37 182.87-5.62 182.31-5.86 181.85-6.18 181.38-6.49 180.9-6.84 180.41-7.18 179.77-7.42L179.77-7.42Q179.28-8.11 178.77-8.76 178.26-9.42 177.53-9.86L177.53-9.86Q177.38-10.79 177.06-11.72 176.75-12.65 176.43-13.55 176.11-14.45 175.89-15.38 175.67-16.31 175.67-17.29L175.67-17.29Q175.67-17.97 175.87-18.95 176.06-19.92 176.38-20.92 176.7-21.92 177.14-22.8 177.58-23.68 178.01-24.22L178.01-24.22Q178.16-24.37 178.36-24.46 178.55-24.56 178.7-24.76L178.7-24.76Q179.14-25.24 179.63-25.56 180.11-25.88 180.65-26.32L180.65-26.32Q180.85-26.51 180.97-26.76 181.09-27 181.34-27.2L181.34-27.2Q181.48-27.29 181.75-27.25 182.02-27.2 182.21-27.34L182.21-27.34Q182.41-27.49 182.41-27.69 182.41-27.88 182.56-28.03L182.56-28.03Q182.6-28.08 182.85-28.05 183.09-28.03 183.14-28.03L183.14-28.03Q183.48-28.03 183.92-28.49 184.36-28.96 184.66-29.1L184.66-29.1Q185-29.3 185.34-29.37 185.68-29.44 186.07-29.64L186.07-29.64Q186.61-29.93 187.12-30.1 187.63-30.27 188.17-30.52L188.17-30.52Q188.46-30.62 188.71-30.86 188.95-31.1 189.2-31.2L189.2-31.2Q189.64-31.35 190.15-31.42 190.66-31.49 191.13-31.57 191.59-31.64 192.05-31.76 192.52-31.88 192.91-32.23L192.91-32.23 193.3-32.23Q194.18-32.23 195.01-32.47 195.84-32.71 196.72-32.71L196.72-32.71Q196.96-32.71 197.45-32.62L197.45-32.62Q197.84-32.86 198.33-32.86L198.33-32.86Q199.16-32.86 199.99-32.45 200.82-32.03 201.7-32.03L201.7-32.03 201.99-32.03Q202.18-32.03 202.38-32.08L202.38-32.08Q202.92-31.54 203.67-31.49 204.43-31.45 204.97-31.05L204.97-31.05Q205.31-30.76 205.53-30.37 205.75-29.98 205.9-29.54L205.9-29.54 206.19-28.66Q206.34-28.22 206.58-27.88L206.58-27.88Q206.34-26.12 205.14-25.07 203.94-24.02 202.14-24.02L202.14-24.02Q201.45-24.02 200.99-24.19 200.52-24.37 200.16-24.56 199.79-24.76 199.4-24.95 199.01-25.15 198.52-25.24L198.52-25.24Q199.06-26.22 199.21-27.34L199.21-27.34Q198.67-27.59 198.13-27.69 197.59-27.78 197.11-28.03L197.11-28.03Q195.79-27.69 194.54-27.56 193.3-27.44 192.22-26.51L192.22-26.51Q191.98-26.56 191.71-26.61 191.44-26.66 191.2-26.66L191.2-26.66Q190.91-26.66 190.03-26.25 189.15-25.83 188.15-25.29 187.15-24.76 186.24-24.22 185.34-23.68 185-23.49L185-23.49Q184.61-23.24 184.31-22.9 184.02-22.56 183.73-22.19 183.43-21.83 183.14-21.51 182.85-21.19 182.41-21.04L182.41-21.04Q182.31-20.51 182.07-20.12 181.82-19.73 181.53-19.29L181.53-19.29Q181.48-18.41 181.36-17.53 181.24-16.65 181.24-15.77L181.24-15.77 181.24-15.14Q181.24-14.84 181.34-14.6L181.34-14.6Q181.82-13.96 182.14-13.18 182.46-12.4 183.24-12.11L183.24-12.11Q183.29-11.91 183.22-11.87 183.14-11.82 183.09-11.62L183.09-11.62Q183.39-11.08 183.85-10.77 184.31-10.45 184.8-10.13 185.29-9.81 185.73-9.47 186.17-9.13 186.41-8.59L186.41-8.59Q187.15-8.59 187.8-8.35 188.46-8.11 189.07-7.81 189.68-7.52 190.25-7.28 190.81-7.03 191.39-7.03L191.39-7.03Q191.93-7.03 192.37-7.18L192.37-7.18Q193.64-6.79 194.93-6.62 196.23-6.45 197.55-6.45L197.55-6.45Q199.16-6.45 200.77-6.64 202.38-6.84 203.99-6.98L203.99-6.98Q204.58-7.08 205.11-7.08 205.65-7.08 206.19-7.18L206.19-7.18Q206.87-7.28 207.48-7.81 208.09-8.35 208.68-8.59L208.68-8.59Q209.22-8.25 209.95-8.25L209.95-8.25Q210.78-8.25 211.56-8.52 212.34-8.79 213.17-8.79L213.17-8.79ZM239.63-12.55L239.63-12.55Q239.63-12.01 239.24-11.74 238.85-11.47 238.85-11.04L238.85-11.04Q238.85-10.84 239.05-10.55L239.05-10.55Q238.36-10.55 238.12-10.11 237.88-9.67 237.63-9.13L237.63-9.13 237-9.13Q236.75-9.13 236.61-9.03 236.46-8.94 236.34-8.76 236.22-8.59 236.02-8.25L236.02-8.25Q235.09-8.06 234.24-7.64 233.38-7.23 232.58-6.76 231.77-6.3 230.94-5.83 230.11-5.37 229.23-5.08L229.23-5.08Q228.79-4.35 227.96-3.91L227.96-3.91 227.82-3.91Q227.57-3.86 227.4-3.98 227.23-4.1 226.99-4.1L226.99-4.1Q226.84-4.1 226.79-4.05L226.79-4.05Q225.33-3.08 223.52-3.08L223.52-3.08Q223.03-3.08 222.59-3.15 222.15-3.22 221.66-3.22L221.66-3.22Q221.52-3.22 221.47-3.13L221.47-3.13 221.37-2.93Q221.32-2.83 221.25-2.73 221.18-2.64 220.88-2.64L220.88-2.64Q220.35-2.64 219.81-2.78 219.27-2.93 218.69-2.83L218.69-2.83Q217.56-3.47 216.93-4.05 216.29-4.64 215.76-5.81L215.76-5.81Q215.51-6.35 215.1-6.84 214.68-7.32 214.49-7.91L214.49-7.91Q214.44-8.11 214.34-8.62 214.24-9.13 214.15-9.72 214.05-10.3 213.97-10.84 213.9-11.38 213.9-11.57L213.9-11.57Q213.9-12.16 213.97-12.72 214.05-13.28 214.15-13.87L214.15-13.87Q214.44-15.72 214.56-17.6 214.68-19.48 215.37-21.24L215.37-21.24Q215.27-21.78 215.27-22.27L215.27-22.27 215.27-23.34Q215.27-24.27 215.02-24.9L215.02-24.9Q215.41-25.54 215.41-26.32L215.41-26.32Q215.41-27.2 214.68-27.34L214.68-27.34 214.68-27.49Q214.68-28.52 214-29.1L214-29.1Q214-30.81 214.85-31.67 215.71-32.52 217.12-33.15L217.12-33.15Q217.32-33.45 217.27-33.64L217.27-33.64Q217.61-33.54 217.9-33.45 218.2-33.35 218.49-33.35L218.49-33.35Q218.98-33.35 219.37-33.5L219.37-33.5Q219.52-32.91 220.13-32.79 220.74-32.67 221.13-32.47L221.13-32.47 221.13-31.84Q221.13-30.32 221.86-28.96L221.86-28.96Q221.66-28.56 221.62-28.13 221.57-27.69 221.57-27.29L221.57-27.29Q221.57-26.71 221.62-26.12 221.66-25.54 221.66-25L221.66-25Q221.66-24.41 221.54-23.83 221.42-23.24 220.98-22.8L220.98-22.8Q220.93-22.17 220.91-21.36 220.88-20.56 220.81-19.73 220.74-18.9 220.54-18.12 220.35-17.33 219.96-16.85L219.96-16.85Q219.91-16.11 219.88-15.36 219.86-14.6 219.86-13.92L219.86-13.92Q219.86-12.84 219.98-11.38 220.1-9.91 220.64-8.94L220.64-8.94Q220.88-8.54 221.59-8.35 222.3-8.15 222.74-8.15L222.74-8.15Q223.28-8.15 223.84-8.33 224.4-8.5 224.64-8.94L224.64-8.94Q224.94-8.89 225.03-8.64 225.13-8.4 225.38-8.25L225.38-8.25Q228.16-9.42 230.94-10.5 233.73-11.57 236.41-12.99L236.41-12.99Q236.8-12.79 237.24-12.79L237.24-12.79Q237.73-12.79 238.22-12.89 238.71-12.99 239.19-12.99L239.19-12.99 239.54-12.99Q239.63-12.7 239.63-12.55ZM270.2-31.05L270.2-31.05 270.2-30.86Q269.86-30.76 269.86-30.37L269.86-30.37Q269.32-30.13 268.73-30 268.15-29.88 267.61-29.64L267.61-29.64Q267.07-29.69 266.51-29.71 265.95-29.74 265.41-29.74L265.41-29.74Q263.95-29.74 262.48-29.64 261.02-29.54 259.55-29.64L259.55-29.64Q258.87-29.25 258.06-29.03 257.26-28.81 256.53-28.81L256.53-28.81Q255.94-28.81 255.5-28.96L255.5-28.96Q254.33-28.37 252.94-27.98 251.55-27.59 250.13-27.22 248.71-26.86 247.42-26.39 246.13-25.93 245.15-25.1L245.15-25.1Q245.05-24.41 245-23.75 244.95-23.1 244.95-22.46L244.95-22.46Q244.95-21.78 245.03-21.19 245.1-20.61 245.34-20.02L245.34-20.02Q245.59-19.92 245.91-19.87 246.22-19.82 246.47-19.82L246.47-19.82Q246.71-19.82 246.96-19.9 247.2-19.97 247.3-20.21L247.3-20.21Q248.03-20.31 248.76-20.29 249.49-20.26 250.23-20.26L250.23-20.26Q250.96-20.26 251.67-20.31 252.38-20.36 253.06-20.56L253.06-20.56Q253.84-20.75 254.6-20.8 255.35-20.85 256.09-20.9 256.82-20.95 257.6-21.07 258.38-21.19 259.21-21.58L259.21-21.58Q259.85-21.34 260.5-21.34 261.16-21.34 261.8-21.24L261.8-21.24Q262.14-21 262.36-20.7 262.58-20.41 262.58-20.02L262.58-20.02Q262.58-19.34 262.09-18.65 261.6-17.97 261.31-17.38L261.31-17.38 260.77-17.38Q259.6-17.38 258.5-17.07 257.4-16.75 256.31-16.33 255.21-15.92 254.11-15.6 253.01-15.28 251.84-15.28L251.84-15.28Q251.64-15.28 251.62-15.06 251.59-14.84 251.5-14.75L251.5-14.75Q251.25-14.79 250.76-14.79L250.76-14.79Q249.64-14.79 248.62-14.55 247.59-14.31 246.52-14.31L246.52-14.31Q246.22-14.31 245.93-14.33 245.64-14.36 245.34-14.4L245.34-14.4Q245.1-14.01 244.71-13.89 244.32-13.77 243.98-13.48L243.98-13.48Q243.83-13.04 243.81-12.4 243.78-11.77 243.76-11.11 243.73-10.45 243.63-9.86 243.54-9.28 243.24-8.94L243.24-8.94Q243.29-8.69 243.63-8.76 243.98-8.84 243.98-8.45L243.98-8.45Q243.98-8.01 243.88-7.52 243.78-7.03 243.78-6.54L243.78-6.54Q243.78-5.62 244-4.52 244.22-3.42 244.68-2.49 245.15-1.56 245.93-0.95 246.71-0.34 247.88-0.34L247.88-0.34Q248.66-0.34 249.35-0.63 250.03-0.93 250.47-1.61L250.47-1.61 250.71-1.66Q250.91-1.66 251.08-1.61 251.25-1.56 251.45-1.56L251.45-1.56Q251.74-1.56 252.2-1.93 252.67-2.29 253.23-2.78 253.79-3.27 254.38-3.74 254.96-4.2 255.5-4.39L255.5-4.39Q255.84-5.08 256.16-5.76 256.48-6.45 257.11-6.84L257.11-6.84 257.11-8.25Q257.6-8.79 258.16-9.23 258.72-9.67 259.02-10.35L259.02-10.35Q259.26-10.25 259.48-10.21 259.7-10.16 259.94-10.16L259.94-10.16Q260.19-10.16 260.46-10.21 260.72-10.25 260.97-10.35L260.97-10.35Q261.36-9.81 261.58-9.16 261.8-8.5 262.14-7.91L262.14-7.91Q261.7-7.03 261.12-5.81 260.53-4.59 259.85-3.37 259.16-2.15 258.41-1.05 257.65 0.05 256.92 0.63L256.92 0.63Q256.77 0.78 256.28 0.98L256.28 0.98Q255.74 1.37 255.3 1.73 254.87 2.1 254.47 2.59L254.47 2.59Q253.06 3.03 251.76 3.76 250.47 4.49 249.2 5.18L249.2 5.18Q248.62 5.03 247.93 5.03L247.93 5.03Q247.35 5.03 246.76 5.1 246.17 5.18 245.49 5.18L245.49 5.18Q245.3 4.93 244.93 4.86 244.56 4.79 244.66 4.35L244.66 4.35Q243 4.25 241.97 3.44 240.95 2.64 240.24 1.46 239.53 0.29 239.09-1.07 238.65-2.44 238.17-3.71L238.17-3.71 238.17-3.86Q238.17-4.1 238.36-4.15 238.56-4.2 238.56-4.44L238.56-4.44Q238.56-4.54 238.51-4.59L238.51-4.59Q238.36-5.13 238.26-5.52 238.17-5.91 238.17-6.45L238.17-6.45Q238.17-7.23 238.26-7.98 238.36-8.74 238.36-9.52L238.36-9.52Q238.36-10.3 238.17-10.89L238.17-10.89Q238.36-11.13 238.48-11.55 238.61-11.96 238.65-12.4 238.7-12.84 238.73-13.28 238.75-13.72 238.85-14.06L238.85-14.06Q238.65-14.6 238.51-15.01 238.36-15.43 238.36-16.02L238.36-16.02 238.36-16.36Q238.85-17.19 239.19-18.07 239.53-18.95 239.92-19.87L239.92-19.87 239.92-20.02Q239.92-21.44 239.83-22.85 239.73-24.27 239.73-25.68L239.73-25.68 239.73-26.61Q239.73-27.1 239.78-27.54L239.78-27.54Q240.17-27.73 240.36-28.08 240.56-28.42 240.95-28.61L240.95-28.61 242.56-28.61 242.85-29.1Q243-29.35 243.05-29.64L243.05-29.64Q243.59-29.79 244.1-30.05 244.61-30.32 245.05-30.62L245.05-30.62Q245.73-31.01 246.3-31.32 246.86-31.64 247.42-31.86 247.98-32.08 248.62-32.23 249.25-32.37 250.08-32.47L250.08-32.47Q250.47-32.47 250.59-32.62 250.71-32.76 250.96-32.96L250.96-32.96Q251.55-32.86 252.13-32.79 252.72-32.71 253.3-32.71L253.3-32.71Q254.47-32.71 255.5-33.15L255.5-33.15Q256.96-33.15 258.41-33.2 259.85-33.25 261.31-33.25L261.31-33.25Q262.58-33.25 263.85-33.15 265.12-33.06 266.34-32.81L266.34-32.81Q266.78-32.96 267.32-32.96L267.32-32.96Q267.9-32.96 268.51-32.84 269.12-32.71 269.71-32.81L269.71-32.81Q269.76-32.28 269.98-31.91 270.2-31.54 270.2-31.05Z" opacity="1" transform="matrix(1,0,0,1,0,0)" fill="#3d3839" class="undefined-p-0"></path></svg></g><g><svg xmlns="http://www.w3.org/2000/svg" xmlns:xlink="http://www.w3.org/1999/xlink" version="1.1" x="299.45537109375" y="0" viewBox="7.84999942779541 0.878000020980835 51.788002014160156 61.86301040649414" enable-background="new 0 0 64 64" xml:space="preserve" height="106.89228515625" width="89.48381015723956" class="icon-s-0" data-fill-palette-color="accent" id="s-0"><path d="M11.848 36.145c1.788 0 3.297-1.198 3.803-2.849l3.019 0.431c-0.855 3.408-0.447 6.641 1.36 8.976l-3.816 3.816c-0.64-0.437-1.412-0.693-2.244-0.693-2.204 0-3.998 1.794-3.998 3.999s1.794 3.998 3.998 3.998 3.998-1.793 3.998-3.998c0-0.646-0.169-1.248-0.442-1.789l3.92-3.918c1.507 1.162 3.434 1.777 5.64 1.777 0.001 0 0.001 0 0.001 0 1.521 0 3.11-0.3 4.697-0.848v9.834c-0.681 0.175-1.312 0.517-1.826 1.032-1.56 1.56-1.56 4.097 0 5.657 0.755 0.755 1.76 1.171 2.829 1.171s2.073-0.416 2.828-1.171c0.756-0.756 1.172-1.762 1.171-2.832-0.001-1.068-0.417-2.071-1.171-2.825-0.51-0.51-1.141-0.85-1.831-1.026V44.219c1.771-0.855 3.492-2.026 5.075-3.448l7.742 7.741c-0.357 0.61-0.566 1.306-0.566 2.019 0 2.205 1.794 3.998 3.998 3.998s3.998-1.793 3.998-3.998-1.794-3.999-3.998-3.999c-0.713 0-1.408 0.209-2.019 0.566l-7.718-7.718c1.904-2.027 3.379-4.308 4.312-6.669l7.157 0.426c0.425 1.75 1.995 3.058 3.875 3.058 2.205 0 3.998-1.794 3.998-3.998 0-2.205-1.794-3.999-3.998-3.999-1.828 0-3.362 1.245-3.835 2.938l-6.556-0.39c0.939-3.559 0.476-6.842-1.29-9.144l3.577-3.577c0.541 0.273 1.143 0.442 1.789 0.442 2.204 0 3.998-1.794 3.998-3.999s-1.794-3.998-3.998-3.998-3.998 1.793-3.998 3.998c0 0.832 0.257 1.604 0.693 2.245l-3.464 3.462c-1.507-1.162-3.434-1.777-5.641-1.777-1.157 0-2.355 0.184-3.562 0.506V8.736c0.686-0.176 1.317-0.516 1.829-1.028 1.56-1.559 1.56-4.097 0-5.656-0.757-0.757-1.761-1.174-2.828-1.174-1.068 0-2.072 0.417-2.829 1.174-1.56 1.56-1.56 4.097 0 5.656 0.511 0.511 1.143 0.852 1.828 1.027v10.848c-2.305 0.931-4.566 2.389-6.579 4.276L17.4 16.487c0.352-0.595 0.566-1.279 0.566-2.018 0-2.205-1.794-3.998-3.998-3.998s-3.998 1.793-3.998 3.998 1.794 3.999 3.998 3.999c0.739 0 1.423-0.215 2.018-0.566l7.383 7.382c-1.854 2.058-3.227 4.29-4.082 6.512l-3.539-0.505c-0.394-1.793-1.991-3.142-3.9-3.142-2.204 0-3.998 1.794-3.998 3.999S9.644 36.145 11.848 36.145zM34.784 58.739c0 0.535-0.207 1.038-0.585 1.416-0.754 0.754-2.075 0.754-2.829 0-0.779-0.78-0.779-2.049 0-2.829 0.376-0.376 0.869-0.583 1.416-0.583 0.001 0 0.001 0 0.001 0 0.534 0 1.036 0.207 1.412 0.583C34.576 57.703 34.783 58.205 34.784 58.739zM30.354 4.879c0.001-0.534 0.208-1.036 0.585-1.413 0.379-0.379 0.881-0.588 1.415-0.588 0.533 0 1.035 0.209 1.414 0.588 0.779 0.78 0.779 2.048 0 2.828-0.752 0.751-2.077 0.75-2.829 0C30.562 5.917 30.354 5.414 30.354 4.879zM13.969 51.822c-1.102 0-1.998-0.896-1.998-1.998 0-1.102 0.896-1.999 1.998-1.999s1.998 0.896 1.998 1.999C15.967 50.926 15.07 51.822 13.969 51.822zM52.029 50.531c0 1.102-0.896 1.998-1.998 1.998s-1.998-0.896-1.998-1.998c0-0.527 0.213-1.043 0.584-1.415 0.371-0.371 0.887-0.584 1.414-0.584C51.133 48.533 52.029 49.429 52.029 50.531zM55.639 30.198c1.102 0 1.998 0.896 1.998 1.999 0 1.102-0.896 1.998-1.998 1.998-1.103 0-1.999-0.896-1.998-2.009C53.646 31.089 54.541 30.198 55.639 30.198zM49.324 12.471c1.102 0 1.998 0.896 1.998 1.998 0 1.102-0.896 1.999-1.998 1.999s-1.998-0.896-1.998-1.999C47.326 13.367 48.223 12.471 49.324 12.471zM41.899 22.247c1.954 1.955 2.372 5.278 1.144 8.917-0.066 0.112-0.108 0.236-0.127 0.371-0.896 2.478-2.463 4.886-4.552 6.975-3.371 3.371-7.588 5.384-11.28 5.383-2.051 0-3.774-0.639-4.983-1.848-3.45-3.45-1.939-10.67 3.358-16.087l0.177-0.177c3.371-3.371 7.588-5.383 11.279-5.383C38.967 20.399 40.69 21.038 41.899 22.247zM11.971 14.469c0-1.102 0.896-1.998 1.998-1.998s1.998 0.896 1.998 1.998c0 1.102-0.896 1.999-1.998 1.999S11.971 15.571 11.971 14.469zM11.848 30.148c1.102 0 1.998 0.896 1.998 2.019-0.01 1.091-0.906 1.978-1.998 1.978-1.102 0-1.998-0.896-1.998-1.998C9.85 31.044 10.746 30.148 11.848 30.148z" fill="#ffffff" data-fill-palette-color="accent"></path><path d="M32 37.147c1.335 0 2.591-0.52 3.535-1.465 1.949-1.95 1.949-5.122 0-7.071-0.944-0.945-2.2-1.465-3.535-1.465s-2.591 0.52-3.535 1.465c-1.949 1.95-1.949 5.122 0 7.071C29.409 36.627 30.665 37.147 32 37.147zM29.879 30.025c0.567-0.567 1.32-0.879 2.121-0.879s1.554 0.312 2.121 0.879c1.169 1.17 1.169 3.073 0 4.243-1.135 1.134-3.107 1.134-4.242 0C28.71 33.098 28.71 31.195 29.879 30.025z" fill="#ffffff" data-fill-palette-color="accent"></path></svg></g><g transform="matrix(1,0,0,1,414.17580234473957,20.413916015625)"><svg width="261.572265625" viewBox="-4 -56.150001525878906 261.54998779296875 66.05999755859375" height="66.064453125" data-palette-color="#3d3839"><path d="M48.68-44.19L48.68-44.19Q48.68-42.48 48.05-40.89 47.41-39.31 47.12-37.65L47.12-37.65Q46.04-36.23 45.12-34.72 44.19-33.2 43.21-31.69 42.24-30.18 41.16-28.78 40.09-27.39 38.72-26.27L38.72-26.27Q38.77-26.22 38.77-26.07L38.77-26.07Q38.77-25.78 38.5-25.61 38.23-25.44 38.33-25.2L38.33-25.2Q37.11-23.93 35.94-22.71 34.77-21.48 33.79-19.97L33.79-19.97Q32.71-19.43 32.03-18.21L32.03-18.21Q31.74-18.21 31.59-18.09 31.45-17.97 31.2-17.87L31.2-17.87Q29.64-15.97 27.93-14.26 26.22-12.55 24.27-11.13L24.27-11.13Q23.54-10.6 22.8-10.16 22.07-9.72 21.39-9.23L21.39-9.23Q20.95-8.94 20.53-8.54 20.12-8.15 19.68-7.81L19.68-7.81Q18.26-6.59 16.89-5.79 15.53-4.98 13.67-4.69L13.67-4.69Q13.53-4.15 13.53-3.52L13.53-3.52 13.53-2.34Q13.53-1.76 13.48-1.15 13.43-0.54 13.13 0L13.13 0 13.13 0.15Q13.13 0.63 13.38 1.1 13.62 1.56 13.62 2.05L13.62 2.05Q13.62 2.39 13.28 2.64L13.28 2.64 14.55 2.64Q14.55 3.32 14.97 3.81 15.38 4.3 15.38 4.54L15.38 4.54Q15.38 5.37 15.21 6.37 15.04 7.37 14.21 7.71L14.21 7.71 14.21 8.01Q14.21 8.5 14.11 8.96 14.01 9.42 13.67 9.86L13.67 9.86Q13.38 9.86 13.11 9.89 12.84 9.91 12.6 9.91L12.6 9.91Q10.55 9.91 8.94 8.94L8.94 8.94Q8.4 7.67 8.23 6.32 8.06 4.98 8.06 3.61L8.06 3.61Q8.06 0.93 8.45-1.71 8.84-4.35 9.08-6.98L9.08-6.98 9.81-8.4Q9.91-9.77 10.16-11.16 10.4-12.55 10.64-13.92 10.89-15.28 11.06-16.65 11.23-18.02 11.18-19.38L11.18-19.38Q11.57-20.21 11.74-21.14 11.91-22.07 11.91-22.95L11.91-22.95Q11.91-23.44 11.87-23.93 11.82-24.41 11.57-24.85L11.57-24.85Q11.87-25.05 11.96-25.34 12.06-25.63 12.26-25.88L12.26-25.88Q12.4-27.78 12.5-29.66 12.6-31.54 12.6-33.4L12.6-33.4Q12.6-34.42 12.55-35.42 12.5-36.43 12.4-37.45L12.4-37.45Q12.35-37.84 12.23-38.38 12.11-38.92 12.11-39.21L12.11-39.21Q12.11-39.6 12.16-40.01 12.21-40.43 12.21-40.87L12.21-40.87Q12.21-41.36 12.11-41.82 12.01-42.29 11.77-42.68L11.77-42.68Q9.42-41.99 7.57-40.84 5.71-39.7 3.81-38.28L3.81-38.28Q3.03-37.74 2.1-37.01 1.17-36.28 0.34-35.89L0.34-35.89Q0.2-35.79-0.02-35.77-0.24-35.74-0.39-35.74L-0.39-35.74Q-0.93-35.74-1.37-35.82-1.81-35.89-2.25-35.89L-2.25-35.89Q-2.93-36.57-3.86-36.96L-3.86-36.96Q-4-37.55-4-38.23L-4-38.23Q-4-38.92-3.88-39.55-3.76-40.19-3.52-40.82L-3.52-40.82Q-2.93-41.02-2.27-41.26-1.61-41.5-1-41.82-0.39-42.14 0.1-42.55 0.59-42.97 0.88-43.6L0.88-43.6Q1.17-43.46 1.42-43.46L1.42-43.46Q1.66-43.46 1.86-43.51 2.05-43.55 2.29-43.6L2.29-43.6Q3.17-44.14 4.08-44.73 4.98-45.31 5.96-45.7L5.96-45.7Q6.25-45.8 6.3-45.95 6.35-46.09 6.3-46.39L6.3-46.39Q7.42-46.73 8.64-47.19 9.86-47.66 10.69-48.49L10.69-48.49 11.57-48.49Q12.3-49.02 13.13-49.37 13.96-49.71 14.82-50.02 15.67-50.34 16.5-50.71 17.33-51.07 18.07-51.66L18.07-51.66Q18.36-51.76 18.55-51.76L18.55-51.76Q18.8-51.76 19.09-51.66L19.09-51.66Q19.58-51.9 19.92-52.25L19.92-52.25 20.7-53.03Q21.48-53.03 22.12-53.17 22.75-53.32 23.34-53.56 23.93-53.81 24.49-54.13 25.05-54.44 25.73-54.79L25.73-54.79Q26.03-54.69 26.17-54.57 26.32-54.44 26.66-54.44L26.66-54.44Q27.15-54.79 27.71-54.96 28.27-55.13 28.86-55.22 29.44-55.32 30-55.47 30.57-55.62 31.01-56.01L31.01-56.01Q32.57-56.01 34.16-56.08 35.74-56.15 37.3-56.15L37.3-56.15Q39.55-56.15 41.87-55.81 44.19-55.47 46.04-54.1L46.04-54.1Q46.78-52.34 48.14-51.12L48.14-51.12Q48.24-50.59 48.36-50.12 48.49-49.66 48.68-49.22L48.68-49.22Q48.34-48.49 48.34-47.61L48.34-47.61Q48.34-46.73 48.51-45.87 48.68-45.02 48.68-44.19ZM44.14-45.36L44.14-45.36Q43.9-45.8 43.82-46.36 43.75-46.92 43.8-47.46L43.8-47.46Q43.16-47.95 42.82-48.73 42.48-49.51 41.85-49.9L41.85-49.9Q41.41-50.15 40.6-50.2 39.79-50.24 39.26-50.39L39.26-50.39Q38.62-50.59 38.4-50.78 38.18-50.98 37.5-50.98L37.5-50.98Q36.91-50.98 36.33-50.85 35.74-50.73 35.16-50.73L35.16-50.73Q34.67-50.73 34.23-50.93 33.79-51.12 33.3-51.12L33.3-51.12Q32.76-51.12 32.3-50.78 31.84-50.44 31.2-50.59L31.2-50.59Q30.91-50.34 30.88-50.2 30.86-50.05 30.81-49.98 30.76-49.9 30.57-49.9L30.57-49.9 29.88-49.9Q28.86-49.9 27.81-49.61 26.76-49.32 25.93-48.63L25.93-48.63Q25.78-48.68 25.66-48.71 25.54-48.73 25.39-48.73L25.39-48.73Q24.56-48.73 23.8-48.27 23.05-47.8 22.12-47.8L22.12-47.8Q21.53-47.22 20.7-46.88 19.87-46.53 19.02-46.22 18.16-45.9 17.43-45.48 16.7-45.07 16.31-44.29L16.31-44.29Q16.26-43.9 16.55-43.8 16.85-43.7 16.85-43.31L16.85-43.31Q16.85-42.97 16.72-42.48 16.6-41.99 16.6-41.5L16.6-41.5Q16.6-40.38 16.85-39.31 17.09-38.23 17.33-37.11L17.33-37.11Q17.09-36.96 16.99-36.67 16.89-36.38 16.65-36.23L16.65-36.23Q17.33-34.18 17.33-32.03L17.33-32.03Q17.33-30.32 16.97-28.69 16.6-27.05 16.46-25.34L16.46-25.34 16.46-25.29Q16.46-25 16.65-24.9 16.85-24.8 16.85-24.56L16.85-24.56Q16.85-24.41 16.8-24.32L16.8-24.32Q16.26-21 15.75-17.68 15.23-14.36 14.89-10.99L14.89-10.99 15.28-10.99Q16.55-10.99 17.55-11.74 18.55-12.5 19.24-13.43L19.24-13.43 20.02-13.43Q23.54-16.5 26.78-19.78 30.03-23.05 32.96-26.81L32.96-26.81Q33.35-26.81 33.5-27 33.64-27.2 33.98-27.29L33.98-27.29Q35.01-28.71 36.13-30.1 37.26-31.49 38.57-32.76L38.57-32.76Q38.62-33.25 38.84-33.64 39.06-34.03 39.31-34.38 39.55-34.72 39.75-35.11 39.94-35.5 39.94-36.04L39.94-36.04Q40.19-36.13 40.48-36.25 40.77-36.38 41.02-36.62L41.02-36.62Q41.11-37.11 41.36-37.5 41.6-37.89 41.6-38.38L41.6-38.38Q41.6-38.57 41.5-38.87L41.5-38.87Q42.29-39.21 42.72-39.99 43.16-40.77 43.41-41.72 43.65-42.68 43.77-43.65 43.9-44.63 44.14-45.36ZM75.78-28.27L75.78-28.27Q75.49-27.83 75.44-27.29 75.39-26.76 75.39-26.32L75.39-26.32Q75.39-25.73 75.41-25.17 75.44-24.61 75.44-24.07L75.44-24.07 75.44-23.34Q75.34-23 75.14-22.66 74.95-22.31 74.85-21.97L74.85-21.97Q74.17-20.17 74.17-18.36L74.17-18.36 74.17-18.26Q73.92-17.68 73.7-17.19 73.48-16.7 73.29-16.24 73.09-15.77 73-15.26 72.9-14.75 72.95-14.06L72.95-14.06Q72.26-12.35 71.14-10.96 70.02-9.57 68.94-8.11L68.94-8.11Q67.92-7.71 67.06-7.08 66.21-6.45 65.43-5.66L65.43-5.66Q63.91-5.18 62.45-4.54 60.98-3.91 59.81-2.83L59.81-2.83Q58.88-2.73 57.96-2.54 57.03-2.34 56.15-1.95L56.15-1.95 55.56-1.95Q55.12-1.95 54.93-2.15L54.93-2.15Q54.29-1.81 53.61-1.68 52.93-1.56 52.24-1.56L52.24-1.56Q51.36-1.56 50.51-1.68 49.66-1.81 48.78-1.95L48.78-1.95Q48.29-2.64 47.41-3 46.53-3.37 45.85-3.71L45.85-3.71Q44.43-5.66 43.8-7.5 43.16-9.33 42.48-11.62L42.48-11.62Q42.58-12.3 42.82-12.96 43.06-13.62 43.02-14.4L43.02-14.4Q43.89-16.94 45.33-19.02 46.77-21.09 48.63-23L48.63-23Q48.63-23.29 48.75-23.49 48.87-23.68 48.78-24.07L48.78-24.07Q48.83-24.02 48.97-24.02L48.97-24.02Q49.36-24.02 49.46-24.24 49.56-24.46 49.51-24.76L49.51-24.76Q51.27-25.88 52.71-27.34 54.15-28.81 56-29.79L56-29.79Q56.15-30.22 56.49-30.52 56.83-30.81 57.03-31.2L57.03-31.2Q58.59-31.64 59.86-32.52 61.13-33.4 62.55-34.08L62.55-34.08Q63.33-34.52 64.04-34.69 64.74-34.86 65.57-35.06L65.57-35.06Q65.87-35.16 66.11-35.21 66.35-35.25 66.65-35.25L66.65-35.25Q67.53-35.25 68.36-34.94 69.19-34.62 70.07-34.62L70.07-34.62Q70.31-34.62 70.48-34.64 70.65-34.67 70.85-34.72L70.85-34.72Q71.68-33.69 72.95-33.15L72.95-33.15Q73.24-32.42 73.65-31.88 74.07-31.35 74.51-30.83 74.95-30.32 75.31-29.71 75.68-29.1 75.78-28.27ZM70.9-25.73L70.9-25.73Q70.9-25.98 70.85-26.17L70.85-26.17Q70.36-26.32 69.92-26.56 69.48-26.81 68.94-26.81L68.94-26.81Q68.6-26.81 68.26-26.66L68.26-26.66Q68.21-27 67.99-27.15 67.77-27.29 67.5-27.42 67.23-27.54 66.97-27.61 66.7-27.69 66.5-27.88L66.5-27.88Q66.35-28.27 66.18-28.69 66.01-29.1 65.57-29.3L65.57-29.3Q65.13-28.86 64.55-28.59 63.96-28.32 63.35-28.08 62.74-27.83 62.18-27.49 61.62-27.15 61.23-26.66L61.23-26.66 60.35-26.66Q60.06-26.12 59.52-25.85 58.98-25.59 58.59-25.1L58.59-25.1Q57.81-24.71 57.15-24.15 56.49-23.58 55.86-22.97 55.22-22.36 54.61-21.73 54-21.09 53.32-20.56L53.32-20.56Q52.68-19.19 51.93-18.19 51.17-17.19 50.51-16.16 49.85-15.14 49.39-13.94 48.92-12.74 48.92-10.99L48.92-10.99 48.92-10.5Q48.92-10.25 48.97-10.01L48.97-10.01Q49.61-9.33 50.02-8.54 50.44-7.76 51.41-7.42L51.41-7.42Q52.39-7.03 53.49-7.08 54.59-7.13 55.61-6.84L55.61-6.84Q57.96-7.28 60.13-8.28 62.3-9.28 64.26-10.69L64.26-10.69Q64.55-10.94 64.94-11.21 65.33-11.47 65.57-11.77L65.57-11.77Q65.82-12.01 65.99-12.3 66.16-12.6 66.35-12.84L66.35-12.84Q66.75-13.48 67.23-14.11 67.72-14.75 68.26-15.28L68.26-15.28Q68.5-16.36 68.89-17.36 69.28-18.36 69.68-19.34 70.07-20.31 70.33-21.34 70.6-22.36 70.6-23.49L70.6-23.49Q70.6-23.73 70.58-24.02 70.55-24.32 70.51-24.56L70.51-24.56Q70.9-25.1 70.9-25.73ZM89.69-6.69L89.69-6.69Q89.45-6.3 89.11-5.98 88.76-5.66 88.47-5.32L88.47-5.32Q88.13-5.18 87.71-5.18 87.3-5.18 86.93-5.2 86.57-5.22 86.25-5.2 85.93-5.18 85.74-4.98L85.74-4.98Q85.35-5.08 85.15-5.35 84.96-5.62 84.47-5.66L84.47-5.66Q84.27-5.71 84.08-5.66L84.08-5.66Q83.34-6.49 82.73-7.42 82.12-8.35 81.59-9.18L81.59-9.18Q81.54-10.99 81.29-12.84L81.29-12.84Q81.25-13.28 81.15-13.72 81.05-14.16 81-14.55L81-14.55Q81-15.04 81.07-15.5 81.15-15.97 81.2-16.36L81.2-16.36Q81.39-17.77 81.64-19.14 81.88-20.51 82.08-21.92L82.08-21.92Q82.27-23.19 82.27-24.58 82.27-25.98 81.83-27.2L81.83-27.2 81.78-27.44Q81.88-27.83 82-28.1 82.12-28.37 82.17-28.71L82.17-28.71Q82.27-29.25 81.93-29.49L81.93-29.49Q82.08-29.88 82.42-30 82.76-30.13 82.81-30.57L82.81-30.57Q82.86-30.76 82.81-30.96L82.81-30.96Q83.2-31.1 83.61-31.23 84.03-31.35 84.42-31.25L84.42-31.25Q85.05-31.15 85.54-30.83 86.03-30.52 86.47-30.13L86.47-30.13Q87.25-27.78 87.1-25.17 86.96-22.56 86.62-19.92 86.27-17.29 86.18-14.77 86.08-12.26 86.96-10.11L86.96-10.11 87.06-10.06Q87.3-10.01 87.45-10.23 87.59-10.45 87.84-10.4L87.84-10.4Q88.03-10.3 88.08-10.3L88.08-10.3Q88.28-9.33 88.72-8.45 89.16-7.57 89.69-6.69ZM126.46-32.08L126.46-32.08Q126.36-31.49 126.19-31.08 126.02-30.66 126.12-29.98L126.12-29.98Q125.63-29.93 125.36-29.66 125.09-29.39 124.92-29.05 124.75-28.71 124.58-28.34 124.41-27.98 124.16-27.69L124.16-27.69Q124.55-25.93 124.6-24.12 124.65-22.31 124.85-20.56L124.85-20.56Q125.09-18.31 125.6-16.14 126.12-13.96 126.12-11.72L126.12-11.72Q126.12-11.04 126.09-10.45 126.07-9.86 126.07-9.23L126.07-9.23Q126.07-8.84 126.09-8.42 126.12-8.01 126.12-7.62L126.12-7.62Q126.12-6.2 125.75-4.79 125.38-3.37 125.19-1.95L125.19-1.95Q124.6-1.42 124.19-0.78 123.77-0.15 123.33 0.39 122.89 0.93 122.31 1.34 121.72 1.76 120.84 1.9L120.84 1.9Q120.7 2.39 120.28 2.64 119.87 2.88 119.57 3.32L119.57 3.32 119.47 3.32Q118.25 3.32 117.38 2.98 116.5 2.64 115.74 2.2 114.98 1.76 114.2 1.27 113.42 0.78 112.39 0.49L112.39 0.49Q111.03-0.63 109.9-1.98 108.78-3.32 107.37-4.39L107.37-4.39Q107.02-5.37 106.46-6.01 105.9-6.64 105.36-7.47L105.36-7.47Q105.12-7.81 105-8.11 104.88-8.4 104.68-8.79L104.68-8.79Q104.53-9.18 104.22-9.33 103.9-9.47 103.65-9.67L103.65-9.67Q103.26-11.18 102.53-12.45 101.8-13.72 100.82-14.89L100.82-14.89Q100.53-14.36 100.36-13.75 100.19-13.13 100.04-12.52 99.89-11.91 99.68-11.3 99.46-10.69 99.11-10.21L99.11-10.21 99.11-10.06Q99.11-9.81 99.31-9.77 99.5-9.72 99.5-9.47L99.5-9.47Q99.5-9.42 99.48-9.38 99.46-9.33 99.46-9.28L99.46-9.28Q99.21-9.08 99.09-8.79 98.97-8.5 98.58-8.45L98.58-8.45Q98.63-8.2 98.63-7.96L98.63-7.96 98.63-7.52Q98.63-6.1 98.31-4.69 97.99-3.27 97.99-1.81L97.99-1.81 97.99-1.17Q97.99-0.83 98.04-0.54L98.04-0.54Q98.14-0.24 98.33 0.05 98.53 0.34 98.53 0.59L98.53 0.59Q98.53 0.93 98.23 1.22L98.23 1.22Q98.58 1.46 99.02 1.76 99.46 2.05 99.82 2.42 100.19 2.78 100.43 3.2 100.68 3.61 100.68 4.1L100.68 4.1Q100.68 4.93 100.14 5.27 99.6 5.62 98.85 5.81 98.09 6.01 97.28 6.18 96.48 6.35 95.94 6.79L95.94 6.79 95.79 6.79Q95.21 6.79 94.91 6.45 94.62 6.1 94.04 6.1L94.04 6.1Q93.11 4.59 92.77 2.71 92.42 0.83 92.42-0.88L92.42-0.88Q92.42-2.98 92.79-5.08 93.16-7.18 93.67-9.23 94.18-11.28 94.79-13.31 95.4-15.33 95.94-17.38L95.94-17.38 95.99-17.53Q95.99-17.77 95.87-17.87 95.74-17.97 95.74-18.16L95.74-18.16Q95.74-18.26 95.79-18.26L95.79-18.26Q95.94-18.75 96.11-19.19 96.28-19.63 96.38-20.17L96.38-20.17Q96.67-21.53 96.79-22.97 96.92-24.41 96.94-25.83 96.97-27.25 97.04-28.69 97.11-30.13 97.36-31.54L97.36-31.54Q97.75-31.93 98.09-32.37 98.43-32.81 98.97-33.15L98.97-33.15Q99.94-33.11 100.92-32.86 101.9-32.62 102.78-32.08L102.78-32.08Q103.36-29.98 103.58-27.88 103.8-25.78 104.34-23.68L104.34-23.68 104.34-23.54Q104.34-23.29 104.61-23.32 104.88-23.34 105.02-23.14L105.02-23.14Q104.92-23 104.9-22.8 104.88-22.61 104.88-22.41L104.88-22.41 104.88-21.58Q104.97-21.19 105.12-20.75 105.27-20.31 105.75-20.21L105.75-20.21Q106-18.65 106.49-17.33 106.97-16.02 107.61-14.79 108.24-13.57 108.98-12.38 109.71-11.18 110.49-9.86L110.49-9.86Q111.71-8.94 112.59-7.74 113.47-6.54 114.37-5.44 115.28-4.35 116.42-3.52 117.57-2.69 119.43-2.49L119.43-2.49Q119.67-2.69 119.77-3.03L119.77-3.03 120.01-3.71Q120.16-4.05 120.33-4.32 120.5-4.59 120.84-4.74L120.84-4.74Q120.94-6.1 121.06-7.52 121.18-8.94 121.67-10.21L121.67-10.21Q121.43-10.64 121.43-11.28L121.43-11.28Q121.43-11.77 121.5-12.21 121.57-12.65 121.57-13.09L121.57-13.09Q121.57-14.01 121.18-14.6L121.18-14.6Q121.18-14.94 121.23-15.31 121.28-15.67 121.53-16.02L121.53-16.02Q121.14-16.99 120.92-18.07 120.7-19.14 120.7-20.26L120.7-20.26Q120.7-20.9 120.84-21.58L120.84-21.58Q120.55-22.31 120.45-23.29L120.45-23.29 120.26-25.29Q120.16-26.32 119.96-27.2 119.77-28.08 119.23-28.61L119.23-28.61Q119.52-29.05 119.52-29.64L119.52-29.64Q119.52-30.62 119.23-31.49 118.94-32.37 118.94-33.35L118.94-33.35Q118.94-34.03 119.23-34.72L119.23-34.72Q120.31-34.67 121.35-34.5 122.4-34.33 123.43-34.33L123.43-34.33Q123.72-33.94 124.11-33.69 124.5-33.45 124.94-33.23 125.38-33.01 125.8-32.76 126.21-32.52 126.46-32.08ZM173.23-31.4L173.38-31.4Q173.18-30.76 172.74-30.22L172.74-30.22 171.91-29.2Q171.52-28.71 171.25-28.15 170.99-27.59 171.08-26.86L171.08-26.86Q170.99-26.86 170.84-26.88 170.69-26.9 170.6-26.9L170.6-26.9Q169.81-26.9 169.4-26.54 168.98-26.17 168.3-25.93L168.3-25.93Q168.2-26.22 168.06-26.49 167.91-26.76 167.62-26.86L167.62-26.86Q166.45-26.61 165.27-26.49 164.1-26.37 162.93-26.17L162.93-26.17Q162.39-26.07 161.86-25.9 161.32-25.73 160.73-25.59L160.73-25.59Q160.44-25.49 160.1-25.51 159.76-25.54 159.41-25.49L159.41-25.49Q158.24-25.44 156.87-25.32 155.51-25.2 154.43-24.56L154.43-24.56Q153.95-24.66 153.41-24.71 152.87-24.76 152.33-24.76L152.33-24.76Q151.16-24.76 149.77-24.54 148.38-24.32 147.3-23.68L147.3-23.68Q147.06-23.78 146.79-23.83 146.52-23.88 146.18-23.88L146.18-23.88Q146.08-23.88 146.03-23.85 145.99-23.83 145.89-23.83L145.89-23.83Q145.84-23.39 146.01-22.97 146.18-22.56 146.62-22.31L146.62-22.31Q146.43-21.78 146.43-21.14L146.43-21.14Q146.43-20.31 146.55-19.48 146.67-18.65 146.67-17.82L146.67-17.82Q146.67-16.89 146.43-16.36L146.43-16.36Q146.91-14.89 146.91-13.23L146.91-13.23Q146.91-12.65 146.84-12.08 146.77-11.52 146.77-10.89L146.77-10.89Q146.77-10.35 147.16-10.03 147.55-9.72 147.55-9.18L147.55-9.18Q147.55-8.98 147.45-8.79L147.45-8.79Q148.13-8.94 148.77-9.2 149.4-9.47 150.09-9.47L150.09-9.47Q150.48-9.47 150.84-9.33 151.21-9.18 151.5-8.94L151.5-8.94Q151.45-8.69 151.43-8.4 151.41-8.11 151.41-7.81L151.41-7.81Q151.41-7.28 151.43-6.81 151.45-6.35 151.5-5.81L151.5-5.81Q151.11-5.13 150.6-4.59 150.09-4.05 149.89-3.22L149.89-3.22Q149.16-3.22 148.6-2.91 148.04-2.59 147.55-2.22 147.06-1.86 146.57-1.54 146.08-1.22 145.5-1.22L145.5-1.22Q144.77-1.22 144.47-1.44 144.18-1.66 144.03-1.9 143.89-2.15 143.76-2.34 143.64-2.54 143.25-2.49L143.25-2.49Q143.15-3.13 142.86-3.69 142.57-4.25 142.25-4.79 141.93-5.32 141.62-5.88 141.3-6.45 141.15-7.03L141.15-7.03Q140.86-8.3 140.91-9.67 140.96-11.04 140.47-12.3L140.47-12.3Q140.57-12.99 140.62-13.7 140.66-14.4 140.66-15.09L140.66-15.09Q140.66-16.46 140.59-17.8 140.52-19.14 140.47-20.56L140.47-20.56Q140.13-21 140.05-21.56 139.98-22.12 139.93-22.66L139.93-22.66Q139.78-22.8 139.61-22.95 139.44-23.1 139.39-23.34L139.39-23.34Q139-23.44 138.81-23.44L138.81-23.44Q138.12-23.44 137.66-23.12 137.2-22.8 136.81-22.8L136.81-22.8Q136.42-22.8 136.07-22.9 135.73-23 135.39-23L135.39-23Q135.1-23 135.07-22.88 135.05-22.75 134.85-22.66L134.85-22.66Q134.71-22.56 134.17-22.46 133.63-22.36 132.97-22.29 132.31-22.22 131.7-22.17 131.09-22.12 130.9-22.12L130.9-22.12Q130.12-22.12 129.7-22.44 129.29-22.75 128.7-23.14L128.7-23.14Q128.8-23.44 128.8-23.54L128.8-23.54Q128.8-24.02 128.51-24.34 128.21-24.66 128.21-24.9L128.21-24.9Q128.21-25.44 128.63-25.73 129.04-26.03 129.09-26.66L129.09-26.66Q130.21-27.15 131.39-27.39 132.56-27.64 133.78-27.78 135-27.93 136.2-28.13 137.39-28.32 138.56-28.76L138.56-28.76Q138.91-28.71 139.22-28.69 139.54-28.66 139.88-28.66L139.88-28.66Q141.35-28.66 142.79-28.98 144.23-29.3 145.74-29.3L145.74-29.3Q146.13-29.3 146.52-29.25 146.91-29.2 147.3-29.1L147.3-29.1Q149.26-29.39 151.19-29.74 153.12-30.08 155.17-30.32L155.17-30.32Q156.14-30.42 157.09-30.49 158.05-30.57 159.02-30.71L159.02-30.71Q159.37-30.76 159.54-30.88 159.71-31.01 159.71-31.4L159.71-31.4Q160.15-31.2 160.68-31.2L160.68-31.2Q161.51-31.2 162.29-31.49 163.08-31.79 163.91-31.79L163.91-31.79Q164.1-31.79 164.25-31.76 164.39-31.74 164.54-31.74L164.54-31.74Q164.88-31.74 164.91-32.06 164.93-32.37 165.37-32.47L165.37-32.47Q165.71-32.57 166.35-32.62 166.98-32.67 167.69-32.74 168.4-32.81 169.01-32.93 169.62-33.06 169.91-33.3L169.91-33.3 170.25-33.84Q171.13-33.79 171.55-33.08 171.96-32.37 172.01-31.54L172.01-31.54Q172.21-31.35 172.57-31.37 172.94-31.4 173.23-31.4L173.23-31.4ZM197.45-31.05L197.45-31.05 197.45-30.86Q197.11-30.76 197.11-30.37L197.11-30.37Q196.57-30.13 195.98-30 195.4-29.88 194.86-29.64L194.86-29.64Q194.32-29.69 193.76-29.71 193.2-29.74 192.66-29.74L192.66-29.74Q191.2-29.74 189.73-29.64 188.27-29.54 186.8-29.64L186.8-29.64Q186.12-29.25 185.31-29.03 184.51-28.81 183.78-28.81L183.78-28.81Q183.19-28.81 182.75-28.96L182.75-28.96Q181.58-28.37 180.19-27.98 178.8-27.59 177.38-27.22 175.96-26.86 174.67-26.39 173.38-25.93 172.4-25.1L172.4-25.1Q172.3-24.41 172.25-23.75 172.2-23.1 172.2-22.46L172.2-22.46Q172.2-21.78 172.28-21.19 172.35-20.61 172.59-20.02L172.59-20.02Q172.84-19.92 173.16-19.87 173.47-19.82 173.72-19.82L173.72-19.82Q173.96-19.82 174.21-19.9 174.45-19.97 174.55-20.21L174.55-20.21Q175.28-20.31 176.01-20.29 176.75-20.26 177.48-20.26L177.48-20.26Q178.21-20.26 178.92-20.31 179.63-20.36 180.31-20.56L180.31-20.56Q181.09-20.75 181.85-20.8 182.6-20.85 183.34-20.9 184.07-20.95 184.85-21.07 185.63-21.19 186.46-21.58L186.46-21.58Q187.1-21.34 187.76-21.34 188.42-21.34 189.05-21.24L189.05-21.24Q189.39-21 189.61-20.7 189.83-20.41 189.83-20.02L189.83-20.02Q189.83-19.34 189.34-18.65 188.85-17.97 188.56-17.38L188.56-17.38 188.02-17.38Q186.85-17.38 185.75-17.07 184.66-16.75 183.56-16.33 182.46-15.92 181.36-15.6 180.26-15.28 179.09-15.28L179.09-15.28Q178.89-15.28 178.87-15.06 178.84-14.84 178.75-14.75L178.75-14.75Q178.5-14.79 178.01-14.79L178.01-14.79Q176.89-14.79 175.87-14.55 174.84-14.31 173.77-14.31L173.77-14.31Q173.47-14.31 173.18-14.33 172.89-14.36 172.59-14.4L172.59-14.4Q172.35-14.01 171.96-13.89 171.57-13.77 171.23-13.48L171.23-13.48Q171.08-13.04 171.06-12.4 171.03-11.77 171.01-11.11 170.98-10.45 170.89-9.86 170.79-9.28 170.5-8.94L170.5-8.94Q170.54-8.69 170.89-8.76 171.23-8.84 171.23-8.45L171.23-8.45Q171.23-8.01 171.13-7.52 171.03-7.03 171.03-6.54L171.03-6.54Q171.03-5.62 171.25-4.52 171.47-3.42 171.94-2.49 172.4-1.56 173.18-0.95 173.96-0.34 175.13-0.34L175.13-0.34Q175.92-0.34 176.6-0.63 177.28-0.93 177.72-1.61L177.72-1.61 177.97-1.66Q178.16-1.66 178.33-1.61 178.5-1.56 178.7-1.56L178.7-1.56Q178.99-1.56 179.46-1.93 179.92-2.29 180.48-2.78 181.04-3.27 181.63-3.74 182.21-4.2 182.75-4.39L182.75-4.39Q183.09-5.08 183.41-5.76 183.73-6.45 184.36-6.84L184.36-6.84 184.36-8.25Q184.85-8.79 185.41-9.23 185.97-9.67 186.27-10.35L186.27-10.35Q186.51-10.25 186.73-10.21 186.95-10.16 187.19-10.16L187.19-10.16Q187.44-10.16 187.71-10.21 187.98-10.25 188.22-10.35L188.22-10.35Q188.61-9.81 188.83-9.16 189.05-8.5 189.39-7.91L189.39-7.91Q188.95-7.03 188.37-5.81 187.78-4.59 187.1-3.37 186.41-2.15 185.66-1.05 184.9 0.05 184.17 0.63L184.17 0.63Q184.02 0.78 183.53 0.98L183.53 0.98Q183 1.37 182.56 1.73 182.12 2.1 181.73 2.59L181.73 2.59Q180.31 3.03 179.02 3.76 177.72 4.49 176.45 5.18L176.45 5.18Q175.87 5.03 175.18 5.03L175.18 5.03Q174.6 5.03 174.01 5.1 173.43 5.18 172.74 5.18L172.74 5.18Q172.55 4.93 172.18 4.86 171.81 4.79 171.91 4.35L171.91 4.35Q170.25 4.25 169.23 3.44 168.2 2.64 167.49 1.46 166.78 0.29 166.34-1.07 165.91-2.44 165.42-3.71L165.42-3.71 165.42-3.86Q165.42-4.1 165.61-4.15 165.81-4.2 165.81-4.44L165.81-4.44Q165.81-4.54 165.76-4.59L165.76-4.59Q165.61-5.13 165.51-5.52 165.42-5.91 165.42-6.45L165.42-6.45Q165.42-7.23 165.51-7.98 165.61-8.74 165.61-9.52L165.61-9.52Q165.61-10.3 165.42-10.89L165.42-10.89Q165.61-11.13 165.73-11.55 165.86-11.96 165.91-12.4 165.95-12.84 165.98-13.28 166-13.72 166.1-14.06L166.1-14.06Q165.91-14.6 165.76-15.01 165.61-15.43 165.61-16.02L165.61-16.02 165.61-16.36Q166.1-17.19 166.44-18.07 166.78-18.95 167.18-19.87L167.18-19.87 167.18-20.02Q167.18-21.44 167.08-22.85 166.98-24.27 166.98-25.68L166.98-25.68 166.98-26.61Q166.98-27.1 167.03-27.54L167.03-27.54Q167.42-27.73 167.61-28.08 167.81-28.42 168.2-28.61L168.2-28.61 169.81-28.61 170.1-29.1Q170.25-29.35 170.3-29.64L170.3-29.64Q170.84-29.79 171.35-30.05 171.86-30.32 172.3-30.62L172.3-30.62Q172.99-31.01 173.55-31.32 174.11-31.64 174.67-31.86 175.23-32.08 175.87-32.23 176.5-32.37 177.33-32.47L177.33-32.47Q177.72-32.47 177.84-32.62 177.97-32.76 178.21-32.96L178.21-32.96Q178.8-32.86 179.38-32.79 179.97-32.71 180.55-32.71L180.55-32.71Q181.73-32.71 182.75-33.15L182.75-33.15Q184.22-33.15 185.66-33.2 187.1-33.25 188.56-33.25L188.56-33.25Q189.83-33.25 191.1-33.15 192.37-33.06 193.59-32.81L193.59-32.81Q194.03-32.96 194.57-32.96L194.57-32.96Q195.15-32.96 195.76-32.84 196.37-32.71 196.96-32.81L196.96-32.81Q197.01-32.28 197.23-31.91 197.45-31.54 197.45-31.05ZM257.55-8.5L257.55-8.5Q257.46-7.76 257.04-7.37 256.63-6.98 256.09-6.64L256.09-6.64Q255.84-6.69 255.62-6.71 255.4-6.74 255.16-6.74L255.16-6.74Q253.65-6.79 252.3-6.35 250.96-5.91 249.55-5.71L249.55-5.71Q249.06-5.62 248.64-5.64 248.23-5.66 247.79-5.57L247.79-5.57Q246.23-5.32 244.47-5.18 242.71-5.03 240.95-4.81 239.19-4.59 237.51-4.27 235.82-3.96 234.36-3.37L234.36-3.37Q234.21-3.47 234.07-3.59 233.92-3.71 233.73-3.71L233.73-3.71Q233.24-3.71 232.8-3.56 232.36-3.42 231.92-3.47L231.92-3.47Q231.43-3.17 230.87-3.05 230.31-2.93 229.75-2.86 229.18-2.78 228.65-2.64 228.11-2.49 227.62-2.1L227.62-2.1Q227.23-2.29 226.67-2.32 226.11-2.34 225.91-2.69L225.91-2.69Q224.79-2.15 223.54-2 222.3-1.86 221.03-1.9L221.03-1.9Q220.2-1.95 219.13-2.15 218.05-2.34 216.98-2.71 215.9-3.08 214.98-3.59 214.05-4.1 213.56-4.83L213.56-4.83Q213.22-5.32 213.07-5.91 212.92-6.49 212.39-6.79L212.39-6.79Q212.53-7.91 212.73-8.98 212.92-10.06 213.12-11.18L213.12-11.18Q214.1-12.01 214.98-12.94 215.85-13.87 216.64-14.89L216.64-14.89Q217.56-15.33 218.37-15.97 219.17-16.6 219.98-17.26 220.79-17.92 221.59-18.55 222.4-19.19 223.32-19.68L223.32-19.68Q223.47-20.02 223.74-20.24 224.01-20.46 224.3-20.68 224.59-20.9 224.84-21.17 225.08-21.44 225.18-21.83L225.18-21.83Q226.89-22.85 228.16-24.41 229.43-25.98 229.82-27.93L229.82-27.93Q228.99-28.61 227.94-28.83 226.89-29.05 225.77-29.15L225.77-29.15Q224.79-29.2 223.74-29.15 222.69-29.1 221.62-29.2L221.62-29.2Q220.54-28.86 219.39-28.76 218.25-28.66 217.12-28.59 216-28.52 214.9-28.3 213.8-28.08 212.78-27.49L212.78-27.49Q212.58-27.49 212.41-27.54 212.24-27.59 212.05-27.59L212.05-27.59Q210.48-27.64 209.12-26.98 207.75-26.32 206.43-25.68L206.43-25.68Q206.33-25.49 206.33-25.39L206.33-25.39Q206.33-25.1 206.45-24.83 206.58-24.56 206.58-24.27L206.58-24.27Q206.53-24.22 206.53-24.17 206.53-24.12 206.48-24.07L206.48-24.07Q206.43-23.83 206.36-23.63 206.28-23.44 206.19-23.19L206.19-23.19Q205.65-21.63 205.6-20.12L205.6-20.12Q205.55-18.85 205.6-17.63 205.65-16.41 205.6-15.14L205.6-15.14Q205.5-13.57 205.11-12.21L205.11-12.21Q205.36-11.04 205.55-9.74 205.75-8.45 206.04-7.18 206.33-5.91 206.75-4.71 207.16-3.52 207.85-2.44L207.85-2.44Q207.8-2.34 207.9-2.29 207.99-2.25 208.09-2.25L208.09-2.25 208.48-2.25Q208.73-2.25 208.68-2.05L208.68-2.05Q208.77-1.9 208.82-1.78 208.87-1.66 209.02-1.56L209.02-1.56Q209.12-1.42 209.02-1.17L209.02-1.17Q208.97-0.2 208.53 0.63 208.09 1.46 207.99 2.44L207.99 2.44Q207.41 2.59 206.92 2.59L206.92 2.59Q206.09 2.54 205.45 2.12 204.82 1.71 204.28 1.12 203.74 0.54 203.26-0.07 202.77-0.68 202.18-1.12L202.18-1.12Q201.84-2.49 201.52-4.15 201.21-5.81 200.47-6.98L200.47-6.98Q200.67-7.42 200.67-8.06L200.67-8.06Q200.72-9.03 200.5-9.99 200.28-10.94 200.38-11.91L200.38-11.91Q200.38-12.45 200.5-12.99 200.62-13.53 200.67-14.06L200.67-14.06Q200.72-14.89 200.5-15.67 200.28-16.46 200.33-17.29L200.33-17.29Q200.38-17.68 200.5-18.04 200.62-18.41 200.86-18.7L200.86-18.7Q200.62-19.29 200.72-19.82L200.72-19.82Q200.77-20.65 200.91-21.39 201.06-22.12 201.11-22.85L201.11-22.85Q201.11-23.24 201.06-23.61 201.01-23.97 200.91-24.32L200.91-24.32 200.47-24.46Q200.18-24.46 199.91-24.32 199.64-24.17 199.45-23.97 199.25-23.78 199.11-23.66 198.96-23.54 198.81-23.54L198.81-23.54Q198.72-23.54 198.59-23.56 198.47-23.58 198.37-23.58L198.37-23.58Q198.28-23.58 198.01-23.39 197.74-23.19 197.37-22.97 197.01-22.75 196.66-22.53 196.32-22.31 196.13-22.27L196.13-22.27Q195.59-22.36 195.27-22.63 194.96-22.9 194.69-23.17 194.42-23.44 194.13-23.66 193.83-23.88 193.39-23.83L193.39-23.83Q193.25-24.12 193.22-24.46 193.2-24.8 193.25-25.15L193.25-25.15 193.25-25.93Q193.59-26.56 194.15-26.98 194.71-27.39 195.35-27.69L195.35-27.69 196.62-28.27Q197.25-28.56 197.79-29L197.79-29 198.23-29Q199.11-28.96 199.77-29.35 200.42-29.74 201.01-30.25 201.6-30.76 202.21-31.3 202.82-31.84 203.55-32.13L203.55-32.13Q204.09-31.88 204.67-31.71 205.26-31.54 205.89-31.49L205.89-31.49Q206.53-31.49 207.21-31.69 207.9-31.88 208.29-32.42L208.29-32.42Q208.53-32.32 208.7-32.3 208.87-32.28 209.12-32.28L209.12-32.28Q209.85-32.23 210.58-32.5 211.31-32.76 212-33.15L212-33.15Q212.97-33.11 213.93-33.28 214.88-33.45 215.83-33.64 216.78-33.84 217.73-34.01 218.69-34.18 219.66-34.13L219.66-34.13Q221.27-34.08 222.84-34.42 224.4-34.77 226.01-34.67L226.01-34.67Q227.13-34.62 228.23-34.5 229.33-34.38 230.45-34.42L230.45-34.42Q231.09-34.13 231.6-33.91 232.11-33.69 232.9-33.79L232.9-33.79Q234.46-32.47 235.73-30.71L235.73-30.71 235.73-29.88Q235.68-28.76 235.34-27.69 234.99-26.61 234.53-25.56 234.07-24.51 233.53-23.51 232.99-22.51 232.5-21.53L232.5-21.53Q229.33-18.65 226.16-15.82 222.98-12.99 219.61-10.35L219.61-10.35Q219.52-9.86 219.35-9.47 219.17-9.08 219.13-8.64L219.13-8.64Q219.13-8.4 219.17-8.25L219.17-8.25Q219.52-8.15 219.78-7.89 220.05-7.62 219.96-7.18L219.96-7.18 220.4-7.18Q220.64-7.18 220.64-6.98L220.64-6.98 221.42-6.93Q223.28-6.84 225.13-7.03 226.99-7.23 228.87-7.47 230.75-7.71 232.6-7.93 234.46-8.15 236.31-8.2L236.31-8.2Q236.75-8.35 237.24-8.45 237.73-8.54 238.12-8.84L238.12-8.84 238.27-8.84Q238.61-8.84 238.78-8.64 238.95-8.45 239.29-8.4L239.29-8.4Q239.54-8.4 239.8-8.5 240.07-8.59 240.37-8.64L240.37-8.64Q241.05-8.84 241.81-8.89 242.56-8.94 243.3-9.03L243.3-9.03Q246.13-9.28 248.91-9.35 251.69-9.42 254.48-10.06L254.48-10.06Q254.72-9.72 255.16-9.59 255.6-9.47 256.09-9.35 256.58-9.23 256.99-9.08 257.41-8.94 257.55-8.5Z" opacity="1" transform="matrix(1,0,0,1,0,0)" fill="#3d3839" class="undefined-p-1"></path></svg></g></svg></g></svg></g><g transform="matrix(1,0,0,1,129.06788098222026,122.4885169921875)"><svg viewBox="0 0 417.612306005299 25.84364419312131" height="25.84364419312131" width="417.612306005299"><g transform="matrix(1,0,0,1,0,0)"><svg width="417.612306005299" viewBox="1.600000023841858 -36.400001525878906 756.1600341796875 46.80000305175781" height="25.84364419312131" data-palette-color="#ffc604"><path d="M25-8.7L25 0 2.1 0 1.6-4.15Q2.25-5 4.35-5.8L4.35-5.8 4.35-28.65Q2.3-29.4 1.6-30.35L1.6-30.35 2.1-34.5 13.8-34.5 14.3-30.35Q13.5-29.4 11.55-28.65L11.55-28.65 11.55-5.45 19.45-5.45Q20.1-8.05 21.3-9.15L21.3-9.15 25-8.7ZM26.5-21.15L27-25Q29.8-25.65 32.2-25.65 34.6-25.65 36.25-25.5L36.25-25.5 36.25-5.55Q38.2-4.8 39-3.85L39-3.85 38.5 0 27 0 26.5-3.85Q27.2-4.8 29.25-5.55L29.25-5.55 29.25-19.45Q27.5-20.05 26.5-21.15L26.5-21.15ZM32.67-28.45Q28.5-28.45 28.5-32.23 28.5-36 32.67-36 36.85-36 36.85-32.23 36.85-28.45 32.67-28.45ZM39.45-31.65L39.95-35.5Q42.75-36.15 45.15-36.15 47.55-36.15 49.2-36L49.2-36 49.2-23.5Q50.25-24.25 52-24.83 53.75-25.4 55.35-25.4L55.35-25.4Q60.8-25.4 63-22.6 65.2-19.8 65.2-13.05L65.2-13.05Q65.2-9.3 64.17-6.58 63.15-3.85 61.4-2.4L61.4-2.4Q58.1 0.4 53.6 0.4L53.6 0.4Q50.2 0.4 46.9-1.3L46.9-1.3Q45.95 0 44.7 0L44.7 0 42.2 0 42.2-29.95Q40.45-30.55 39.45-31.65L39.45-31.65ZM53.2-4.7L53.2-4.7Q58-4.7 58-12.75L58-12.75Q58-17 57.17-18.53 56.35-20.05 54.3-20.05L54.3-20.05Q51.2-20.05 49.2-18.4L49.2-18.4 49.2-5.55Q51.35-4.7 53.2-4.7ZM82.84-18.85L82.84-18.85Q79.04-18.85 77.59-17.4L77.59-17.4 77.59-5.95Q81.64-5.2 83.14-3.85L83.14-3.85 82.64 0 68.34 0 67.84-3.85Q68.54-4.8 70.59-5.55L70.59-5.55 70.59-19.45Q68.84-20.05 67.84-21.15L67.84-21.15 68.34-25Q71.09-25.6 73.29-25.6 75.49-25.6 76.94-25.5L76.94-25.5 76.94-22.35Q78.09-23.7 79.89-24.58 81.69-25.45 83.17-25.45 84.64-25.45 85.19-25.2L85.19-25.2 85.04-18.7Q84.04-18.85 82.84-18.85ZM88.24-21.3L88.24-21.3Q88.24-22.05 88.29-22.9L88.29-22.9Q92.94-25.4 98.29-25.4 103.64-25.4 105.97-23.38 108.29-21.35 108.29-16.65L108.29-16.65 108.29-6Q110.04-5.65 111.04-5.15L111.04-5.15 111.04-0.8Q108.49 0.4 103.74 0.4L103.74 0.4Q103.24-0.9 102.89-2.75L102.89-2.75Q100.74 0.4 95.09 0.4L95.09 0.4Q91.74 0.4 89.37-1.55 86.99-3.5 86.99-6.85 86.99-10.2 89.22-12.13 91.44-14.05 95.84-14.05L95.84-14.05 101.29-14.05 101.29-16.45Q101.29-20.35 97.14-20.35L97.14-20.35Q95.59-20.35 94.59-20.05L94.59-20.05Q94.49-17.95 93.99-16.8L93.99-16.8 89.09-16.8Q88.24-18.55 88.24-21.3ZM97.24-4.7L97.24-4.7Q99.79-4.7 101.29-6.2L101.29-6.2 101.29-10.3 97.79-10.3Q94.19-10.3 94.19-7.55L94.19-7.55Q94.19-6.3 94.97-5.5 95.74-4.7 97.24-4.7ZM127.84-18.85L127.84-18.85Q124.04-18.85 122.59-17.4L122.59-17.4 122.59-5.95Q126.64-5.2 128.14-3.85L128.14-3.85 127.64 0 113.34 0 112.84-3.85Q113.54-4.8 115.59-5.55L115.59-5.55 115.59-19.45Q113.84-20.05 112.84-21.15L112.84-21.15 113.34-25Q116.09-25.6 118.29-25.6 120.49-25.6 121.94-25.5L121.94-25.5 121.94-22.35Q123.09-23.7 124.89-24.58 126.69-25.45 128.16-25.45 129.64-25.45 130.19-25.2L130.19-25.2 130.04-18.7Q129.04-18.85 127.84-18.85ZM138.29 5.8L138.99 5.8Q139.89 5.8 140.91 4.13 141.94 2.45 142.34 0.15L142.34 0.15 134.14-19.25Q131.69-20.05 130.84-21.15L130.84-21.15 131.34-25 142.84-25 143.34-21.15Q142.69-20.35 141.14-19.7L141.14-19.7 143.89-12.15Q144.79-9.8 145.14-7.5L145.14-7.5 145.29-6.8 145.99-6.8Q146.39-9.3 147.39-12.05L147.39-12.05 150.04-19.45Q148.19-20.15 147.44-21.15L147.44-21.15 147.94-25 158.94-25 159.44-21.15Q158.54-20 156.14-19.2L156.14-19.2 147.89 0.3Q145.54 5.85 144.29 7.45L144.29 7.45Q142.09 10.4 138.16 10.4 134.24 10.4 132.19 8.35L132.19 8.35Q132.14 7.85 132.14 7.35L132.14 7.35Q132.14 4.6 133.29 2.15L133.29 2.15 137.44 2.15Q138.19 3.5 138.29 5.8L138.29 5.8ZM161.13-3.25L161.13-3.25Q161.13-7.05 165.38-7.05 169.63-7.05 169.63-3.25L169.63-3.25Q169.63 0.1 167.93 2.98 166.23 5.85 163.83 7.55L163.83 7.55 161.73 6.25Q163.38 3.5 163.38 0.85L163.38 0.85Q163.38 0.45 163.33 0.1L163.33 0.1Q162.38-0.2 161.76-1.13 161.13-2.05 161.13-3.25ZM196.58-12L196.58-12 194.33-12 194.33-6.1Q197.98-5.3 198.88-4.15L198.88-4.15 198.38 0 184.88 0 184.38-4.15Q185.03-5 187.13-5.8L187.13-5.8 187.13-28.65Q185.08-29.4 184.38-30.35L184.38-30.35 184.88-34.5 198.13-34.5Q205.08-34.4 208.5-31.98 211.93-29.55 211.93-23.35L211.93-23.35Q211.93-12 196.58-12ZM197.33-29.05L197.33-29.05 194.33-29.05 194.33-17.45 197.68-17.45Q201.08-17.45 202.75-18.8 204.43-20.15 204.43-23.48 204.43-26.8 202.6-27.93 200.78-29.05 197.33-29.05ZM215.38-21.3L215.38-21.3Q215.38-22.05 215.43-22.9L215.43-22.9Q220.08-25.4 225.43-25.4 230.78-25.4 233.1-23.38 235.43-21.35 235.43-16.65L235.43-16.65 235.43-6Q237.18-5.65 238.18-5.15L238.18-5.15 238.18-0.8Q235.63 0.4 230.88 0.4L230.88 0.4Q230.38-0.9 230.03-2.75L230.03-2.75Q227.88 0.4 222.23 0.4L222.23 0.4Q218.88 0.4 216.5-1.55 214.13-3.5 214.13-6.85 214.13-10.2 216.35-12.13 218.58-14.05 222.98-14.05L222.98-14.05 228.43-14.05 228.43-16.45Q228.43-20.35 224.28-20.35L224.28-20.35Q222.73-20.35 221.73-20.05L221.73-20.05Q221.63-17.95 221.13-16.8L221.13-16.8 216.23-16.8Q215.38-18.55 215.38-21.3ZM224.38-4.7L224.38-4.7Q226.93-4.7 228.43-6.2L228.43-6.2 228.43-10.3 224.93-10.3Q221.33-10.3 221.33-7.55L221.33-7.55Q221.33-6.3 222.1-5.5 222.88-4.7 224.38-4.7ZM254.97-18.85L254.97-18.85Q251.17-18.85 249.72-17.4L249.72-17.4 249.72-5.95Q253.77-5.2 255.27-3.85L255.27-3.85 254.77 0 240.47 0 239.97-3.85Q240.67-4.8 242.72-5.55L242.72-5.55 242.72-19.45Q240.97-20.05 239.97-21.15L239.97-21.15 240.47-25Q243.22-25.6 245.42-25.6 247.62-25.6 249.07-25.5L249.07-25.5 249.07-22.35Q250.22-23.7 252.02-24.58 253.82-25.45 255.3-25.45 256.77-25.45 257.32-25.2L257.32-25.2 257.17-18.7Q256.17-18.85 254.97-18.85ZM264.82-31.3L268.47-31.3 268.47-25 275.62-25 275.62-20.8 268.47-20.8 268.47-8.15Q268.47-6.55 268.92-5.83 269.37-5.1 271.07-5.1 272.77-5.1 274.72-5.85L274.72-5.85 276.22-1.95Q272.37 0 268.35 0 264.32 0 262.9-1.73 261.47-3.45 261.47-6.75L261.47-6.75 261.47-20.8 259.22-20.8 258.67-23.85Q259.47-24.8 261.97-25.75L261.97-25.75Q262.57-29.85 264.82-31.3L264.82-31.3ZM278.07-21.15L278.57-25Q281.37-25.65 283.77-25.65 286.17-25.65 287.82-25.5L287.82-25.5 287.82-5.55Q289.77-4.8 290.57-3.85L290.57-3.85 290.07 0 278.57 0 278.07-3.85Q278.77-4.8 280.82-5.55L280.82-5.55 280.82-19.45Q279.07-20.05 278.07-21.15L278.07-21.15ZM284.24-28.45Q280.07-28.45 280.07-32.23 280.07-36 284.24-36 288.42-36 288.42-32.23 288.42-28.45 284.24-28.45ZM304.32-20.3L304.32-20.3Q299.72-20.3 299.72-12.4L299.72-12.4Q299.72-8.4 300.99-6.83 302.27-5.25 304.67-5.25L304.67-5.25Q308.47-5.25 311.37-5.95L311.37-5.95 312.87-2.1Q311.27-1.05 308.57-0.33 305.87 0.4 303.32 0.4L303.32 0.4Q292.52 0.4 292.52-12.1L292.52-12.1Q292.52-19.4 296.27-22.6L296.27-22.6Q299.62-25.4 304.42-25.4 309.22-25.4 312.42-23.6L312.42-23.6Q312.47-23.1 312.47-22.65L312.47-22.65Q312.47-19.8 311.17-17.25L311.17-17.25 306.77-17.25Q306.07-18.5 305.92-20.25L305.92-20.25Q305.32-20.3 304.32-20.3ZM314.46-31.65L314.96-35.5Q317.76-36.15 320.16-36.15 322.56-36.15 324.21-36L324.21-36 324.21-5.55Q326.16-4.8 326.96-3.85L326.96-3.85 326.46 0 314.96 0 314.46-3.85Q315.16-4.8 317.21-5.55L317.21-5.55 317.21-29.95Q315.46-30.55 314.46-31.65L314.46-31.65ZM341.01 0.4L341.01 0.4Q335.01 0.4 331.99-2.8 328.96-6 328.96-12.1L328.96-12.1Q328.96-15.8 330.01-18.48 331.06-21.15 332.86-22.6L332.86-22.6Q336.36-25.4 341.01-25.4 345.66-25.4 348.14-23.03 350.61-20.65 350.61-14.5L350.61-14.5Q350.61-10.9 347.06-10.9L347.06-10.9 336.21-10.9Q336.41-7.75 337.84-6.45 339.26-5.15 342.36-5.15L342.36-5.15Q344.06-5.15 345.61-5.55 347.16-5.95 347.86-6.35L347.86-6.35 348.56-6.75 350.06-2.75Q349.76-2.4 349.19-1.88 348.61-1.35 346.29-0.48 343.96 0.4 341.01 0.4ZM336.26-15.05L344.16-15.35Q344.26-16.05 344.26-17.05 344.26-18.05 343.46-19.18 342.66-20.3 340.69-20.3 338.71-20.3 337.66-19.1 336.61-17.9 336.26-15.05L336.26-15.05ZM363.16-20.9L363.16-20.9Q359.86-20.9 359.86-18.95L359.86-18.95Q359.86-17.1 363.31-16.2L363.31-16.2 367.26-15.15Q373.36-13.55 373.36-8.1L373.36-8.1Q373.36-4.35 370.73-1.98 368.11 0.4 362.38 0.4 356.66 0.4 353.46-1.2L353.46-1.2Q353.41-1.75 353.41-2.3L353.41-2.3Q353.41-5.05 354.51-7.25L354.51-7.25 358.66-7.25Q359.31-6.05 359.51-4.75L359.51-4.75Q360.51-4.45 362.36-4.45L362.36-4.45Q366.76-4.45 366.76-6.95L366.76-6.95Q366.76-7.75 366.16-8.28 365.56-8.8 363.81-9.3L363.81-9.3 359.86-10.45Q356.81-11.3 355.11-12.98 353.41-14.65 353.41-17.93 353.41-21.2 356.06-23.3 358.71-25.4 363.63-25.4 368.56-25.4 371.96-23.95L371.96-23.95Q372.01-23.45 372.01-22.95L372.01-22.95Q372.01-20.35 370.91-18.15L370.91-18.15 366.81-18.15Q366.16-19.3 365.96-20.55L365.96-20.55Q364.56-20.9 363.16-20.9ZM410.95-8.7L410.95 0 387.75 0 387.25-4.15Q387.9-5 390-5.8L390-5.8 390-28.65Q387.95-29.4 387.25-30.35L387.25-30.35 387.75-34.5 410.55-34.5 410.55-25.8 406.85-25.35Q405.7-26.35 405-29.05L405-29.05 397.2-29.05 397.2-20.45 404.15-20.45Q404.75-21.95 405.4-22.55L405.4-22.55 408.55-22.2 408.55-13.3 405.4-12.9Q404.75-13.4 404.15-15L404.15-15 397.2-15 397.2-5.45 405.4-5.45Q406.05-8.05 407.25-9.15L407.25-9.15 410.95-8.7ZM416.65-24.55L416.65-25.95Q416.65-31.15 418.9-33.77 421.15-36.4 426.05-36.4 430.95-36.4 434.55-33.75L434.55-33.75Q434.6-33.4 434.6-32.73 434.6-32.05 434.25-30.5 433.9-28.95 433.3-28L433.3-28 429.1-28Q428.2-29.7 428.15-31.2L428.15-31.2Q427.55-31.3 427.15-31.3L427.15-31.3Q425.25-31.3 424.45-30.25 423.65-29.2 423.65-26.45L423.65-26.45 423.65-24.55 431.3-24.55 431.3-19.95 423.65-19.95 423.65-5.8Q427.4-5.05 428.75-3.85L428.75-3.85 428.25 0 414.4 0 413.9-3.85Q414.6-4.8 416.65-5.55L416.65-5.55 416.65-19.95 414.45-19.95 413.9-23.4Q415-24.4 416.65-24.55L416.65-24.55ZM435.75-24.55L435.75-25.95Q435.75-31.15 438-33.77 440.25-36.4 445.15-36.4 450.05-36.4 453.65-33.75L453.65-33.75Q453.7-33.4 453.7-32.73 453.7-32.05 453.35-30.5 453-28.95 452.4-28L452.4-28 448.2-28Q447.3-29.7 447.25-31.2L447.25-31.2Q446.65-31.3 446.25-31.3L446.25-31.3Q444.35-31.3 443.55-30.25 442.75-29.2 442.75-26.45L442.75-26.45 442.75-24.55 450.4-24.55 450.4-19.95 442.75-19.95 442.75-5.8Q446.5-5.05 447.85-3.85L447.85-3.85 447.35 0 433.5 0 433-3.85Q433.7-4.8 435.75-5.55L435.75-5.55 435.75-19.95 433.55-19.95 433-23.4Q434.1-24.4 435.75-24.55L435.75-24.55ZM464.1 0.4L464.1 0.4Q458.1 0.4 455.07-2.8 452.05-6 452.05-12.1L452.05-12.1Q452.05-15.8 453.1-18.48 454.15-21.15 455.95-22.6L455.95-22.6Q459.45-25.4 464.1-25.4 468.75-25.4 471.22-23.03 473.7-20.65 473.7-14.5L473.7-14.5Q473.7-10.9 470.15-10.9L470.15-10.9 459.3-10.9Q459.5-7.75 460.92-6.45 462.35-5.15 465.45-5.15L465.45-5.15Q467.15-5.15 468.7-5.55 470.25-5.95 470.95-6.35L470.95-6.35 471.65-6.75 473.15-2.75Q472.85-2.4 472.27-1.88 471.7-1.35 469.37-0.48 467.05 0.4 464.1 0.4ZM459.35-15.05L467.25-15.35Q467.35-16.05 467.35-17.05 467.35-18.05 466.55-19.18 465.75-20.3 463.77-20.3 461.8-20.3 460.75-19.1 459.7-17.9 459.35-15.05L459.35-15.05ZM487.99-20.3L487.99-20.3Q483.39-20.3 483.39-12.4L483.39-12.4Q483.39-8.4 484.67-6.83 485.94-5.25 488.34-5.25L488.34-5.25Q492.14-5.25 495.04-5.95L495.04-5.95 496.54-2.1Q494.94-1.05 492.24-0.33 489.54 0.4 486.99 0.4L486.99 0.4Q476.19 0.4 476.19-12.1L476.19-12.1Q476.19-19.4 479.94-22.6L479.94-22.6Q483.29-25.4 488.09-25.4 492.89-25.4 496.09-23.6L496.09-23.6Q496.14-23.1 496.14-22.65L496.14-22.65Q496.14-19.8 494.84-17.25L494.84-17.25 490.44-17.25Q489.74-18.5 489.59-20.25L489.59-20.25Q488.99-20.3 487.99-20.3ZM504.19-31.3L507.84-31.3 507.84-25 514.99-25 514.99-20.8 507.84-20.8 507.84-8.15Q507.84-6.55 508.29-5.83 508.74-5.1 510.44-5.1 512.14-5.1 514.09-5.85L514.09-5.85 515.59-1.95Q511.74 0 507.72 0 503.69 0 502.27-1.73 500.84-3.45 500.84-6.75L500.84-6.75 500.84-20.8 498.59-20.8 498.04-23.85Q498.84-24.8 501.34-25.75L501.34-25.75Q501.94-29.85 504.19-31.3L504.19-31.3ZM517.84-3.25L517.84-3.25Q517.84-7.05 522.09-7.05 526.34-7.05 526.34-3.25L526.34-3.25Q526.34 0.1 524.64 2.98 522.94 5.85 520.54 7.55L520.54 7.55 518.44 6.25Q520.09 3.5 520.09 0.85L520.09 0.85Q520.09 0.45 520.04 0.1L520.04 0.1Q519.09-0.2 518.46-1.13 517.84-2.05 517.84-3.25ZM540.08 5L540.08 5Q541.88 5 542.63 4.08 543.38 3.15 543.38 0.45L543.38 0.45 543.38-28.65Q541.33-29.4 540.63-30.35L540.63-30.35 541.13-34.5 552.83-34.5 553.33-30.35Q552.53-29.4 550.58-28.65L550.58-28.65 550.53 0Q550.53 5.75 548.31 8.08 546.08 10.4 541.11 10.4 536.13 10.4 532.58 7.8L532.58 7.8Q532.58 7.5 532.58 6.73 532.58 5.95 532.91 4.17 533.23 2.4 533.83 1.2L533.83 1.2 538.33 1.2Q539.03 2.3 539.33 4.95L539.33 4.95Q539.58 5 540.08 5ZM556.28-21.3L556.28-21.3Q556.28-22.05 556.33-22.9L556.33-22.9Q560.98-25.4 566.33-25.4 571.68-25.4 574-23.38 576.33-21.35 576.33-16.65L576.33-16.65 576.33-6Q578.08-5.65 579.08-5.15L579.08-5.15 579.08-0.8Q576.53 0.4 571.78 0.4L571.78 0.4Q571.28-0.9 570.93-2.75L570.93-2.75Q568.78 0.4 563.13 0.4L563.13 0.4Q559.78 0.4 557.4-1.55 555.03-3.5 555.03-6.85 555.03-10.2 557.25-12.13 559.48-14.05 563.88-14.05L563.88-14.05 569.33-14.05 569.33-16.45Q569.33-20.35 565.18-20.35L565.18-20.35Q563.63-20.35 562.63-20.05L562.63-20.05Q562.53-17.95 562.03-16.8L562.03-16.8 557.13-16.8Q556.28-18.55 556.28-21.3ZM565.28-4.7L565.28-4.7Q567.83-4.7 569.33-6.2L569.33-6.2 569.33-10.3 565.83-10.3Q562.23-10.3 562.23-7.55L562.23-7.55Q562.23-6.3 563-5.5 563.78-4.7 565.28-4.7ZM603.93-19.2L595.68 0.3 590.18 0.3 581.98-19.2Q579.48-20 578.63-21.15L578.63-21.15 579.13-25 590.63-25 591.13-21.15Q590.48-20.35 588.98-19.7L588.98-19.7 591.68-12.15Q592.58-9.8 592.98-7.5L592.98-7.5 593.08-6.8 593.78-6.8Q594.18-9.3 595.18-12.05L595.18-12.05 597.83-19.45Q595.98-20.15 595.23-21.15L595.23-21.15 595.73-25 606.73-25 607.23-21.15Q606.33-20 603.93-19.2L603.93-19.2ZM609.47-21.3L609.47-21.3Q609.47-22.05 609.52-22.9L609.52-22.9Q614.17-25.4 619.52-25.4 624.87-25.4 627.2-23.38 629.52-21.35 629.52-16.65L629.52-16.65 629.52-6Q631.27-5.65 632.27-5.15L632.27-5.15 632.27-0.8Q629.72 0.4 624.97 0.4L624.97 0.4Q624.47-0.9 624.12-2.75L624.12-2.75Q621.97 0.4 616.32 0.4L616.32 0.4Q612.97 0.4 610.6-1.55 608.22-3.5 608.22-6.85 608.22-10.2 610.45-12.13 612.67-14.05 617.07-14.05L617.07-14.05 622.52-14.05 622.52-16.45Q622.52-20.35 618.37-20.35L618.37-20.35Q616.82-20.35 615.82-20.05L615.82-20.05Q615.72-17.95 615.22-16.8L615.22-16.8 610.32-16.8Q609.47-18.55 609.47-21.3ZM618.47-4.7L618.47-4.7Q621.02-4.7 622.52-6.2L622.52-6.2 622.52-10.3 619.02-10.3Q615.42-10.3 615.42-7.55L615.42-7.55Q615.42-6.3 616.2-5.5 616.97-4.7 618.47-4.7ZM644.07-20.9L644.07-20.9Q640.77-20.9 640.77-18.95L640.77-18.95Q640.77-17.1 644.22-16.2L644.22-16.2 648.17-15.15Q654.27-13.55 654.27-8.1L654.27-8.1Q654.27-4.35 651.65-1.98 649.02 0.4 643.3 0.4 637.57 0.4 634.37-1.2L634.37-1.2Q634.32-1.75 634.32-2.3L634.32-2.3Q634.32-5.05 635.42-7.25L635.42-7.25 639.57-7.25Q640.22-6.05 640.42-4.75L640.42-4.75Q641.42-4.45 643.27-4.45L643.27-4.45Q647.67-4.45 647.67-6.95L647.67-6.95Q647.67-7.75 647.07-8.28 646.47-8.8 644.72-9.3L644.72-9.3 640.77-10.45Q637.72-11.3 636.02-12.98 634.32-14.65 634.32-17.93 634.32-21.2 636.97-23.3 639.62-25.4 644.55-25.4 649.47-25.4 652.87-23.95L652.87-23.95Q652.92-23.45 652.92-22.95L652.92-22.95Q652.92-20.35 651.82-18.15L651.82-18.15 647.72-18.15Q647.07-19.3 646.87-20.55L646.87-20.55Q645.47-20.9 644.07-20.9ZM668.37-20.3L668.37-20.3Q663.77-20.3 663.77-12.4L663.77-12.4Q663.77-8.4 665.04-6.83 666.32-5.25 668.72-5.25L668.72-5.25Q672.52-5.25 675.42-5.95L675.42-5.95 676.92-2.1Q675.32-1.05 672.62-0.33 669.92 0.4 667.37 0.4L667.37 0.4Q656.57 0.4 656.57-12.1L656.57-12.1Q656.57-19.4 660.32-22.6L660.32-22.6Q663.67-25.4 668.47-25.4 673.27-25.4 676.47-23.6L676.47-23.6Q676.52-23.1 676.52-22.65L676.52-22.65Q676.52-19.8 675.22-17.25L675.22-17.25 670.82-17.25Q670.12-18.5 669.97-20.25L669.97-20.25Q669.37-20.3 668.37-20.3ZM694.12-18.85L694.12-18.85Q690.32-18.85 688.87-17.4L688.87-17.4 688.87-5.95Q692.92-5.2 694.42-3.85L694.42-3.85 693.92 0 679.62 0 679.12-3.85Q679.82-4.8 681.87-5.55L681.87-5.55 681.87-19.45Q680.12-20.05 679.12-21.15L679.12-21.15 679.62-25Q682.37-25.6 684.57-25.6 686.77-25.6 688.22-25.5L688.22-25.5 688.22-22.35Q689.37-23.7 691.17-24.58 692.97-25.45 694.44-25.45 695.92-25.45 696.47-25.2L696.47-25.2 696.32-18.7Q695.32-18.85 694.12-18.85ZM698.61-21.15L699.11-25Q701.91-25.65 704.31-25.65 706.71-25.65 708.36-25.5L708.36-25.5 708.36-5.55Q710.31-4.8 711.11-3.85L711.11-3.85 710.61 0 699.11 0 698.61-3.85Q699.31-4.8 701.36-5.55L701.36-5.55 701.36-19.45Q699.61-20.05 698.61-21.15L698.61-21.15ZM704.79-28.45Q700.61-28.45 700.61-32.23 700.61-36 704.79-36 708.96-36 708.96-32.23 708.96-28.45 704.79-28.45ZM712.56-21.15L713.06-25Q715.81-25.6 718.01-25.6 720.21-25.6 721.66-25.5L721.66-25.5 721.66-23.05Q725.01-25.4 728.81-25.4L728.81-25.4Q733.81-25.4 736.06-22.55 738.31-19.7 738.31-13.05L738.31-13.05Q738.31-9.5 737.26-6.8 736.21-4.1 734.41-2.6L734.41-2.6Q730.96 0.4 726.21 0.4L726.21 0.4Q724.16 0.4 722.31 0L722.31 0 722.31 4.3Q725.26 5.1 726.11 6.15L726.11 6.15 725.61 10 713.06 10 712.56 6.15Q713.21 5.25 715.31 4.45L715.31 4.45 715.31-19.45Q713.56-20.05 712.56-21.15L712.56-21.15ZM725.71-4.7L725.71-4.7Q728.21-4.7 729.66-6.93 731.11-9.15 731.11-13.08 731.11-17 730.31-18.45 729.51-19.9 727.41-19.9L727.41-19.9Q724.21-19.9 722.31-18.4L722.31-18.4 722.31-5.1Q723.86-4.7 725.71-4.7ZM746.36-31.3L750.01-31.3 750.01-25 757.16-25 757.16-20.8 750.01-20.8 750.01-8.15Q750.01-6.55 750.46-5.83 750.91-5.1 752.61-5.1 754.31-5.1 756.26-5.85L756.26-5.85 757.76-1.95Q753.91 0 749.88 0 745.86 0 744.43-1.73 743.01-3.45 743.01-6.75L743.01-6.75 743.01-20.8 740.76-20.8 740.21-23.85Q741.01-24.8 743.51-25.75L743.51-25.75Q744.11-29.85 746.36-31.3L746.36-31.3Z" opacity="1" transform="matrix(1,0,0,1,0,0)" fill="#ffffff" class="undefined-text-1" data-fill-palette-color="secondary" id="text-1"></path></svg></g></svg></g></svg></g></svg></g><g></g></svg></g></svg></g></svg></g><defs></defs></svg><rect width="320" height="360" fill="none" stroke="none" visibility="hidden"></rect></g></svg></g></svg>